<?xml version="1.0" encoding="UTF-8" standalone="no"?>
<!DOCTYPE svg PUBLIC "-//W3C//DTD SVG 1.1//EN" "http://www.w3.org/Graphics/SVG/1.1/DTD/svg11.dtd">
<svg width="100%" height="100%" viewBox="0 0 3693 3693" version="1.1" xmlns="http://www.w3.org/2000/svg" xmlns:xlink="http://www.w3.org/1999/xlink" xml:space="preserve" xmlns:serif="http://www.serif.com/" style="fill-rule:evenodd;clip-rule:evenodd;stroke-linecap:round;stroke-linejoin:round;stroke-miterlimit:1.5;">
    <g transform="matrix(1,0,0,1,-129.791667,-77.791667)">
        <g transform="matrix(1,0,0,1,43,-309)">
            <circle cx="1933" cy="2233" r="1841" style="fill:rgb(249,236,220);stroke:rgb(186,115,27);stroke-width:10.42px;"/>
        </g>
        <g transform="matrix(1.142981,0,0,1.660473,-247.487301,-429.90965)">
            <g transform="matrix(3.996152,0,0,3.996152,-145.579488,-208.32364)">
                <path d="M732.501,462.821C652.018,462.776 651.874,462.806 651.376,463.37C649.567,465.42 649.276,467.668 647.829,465.294C646.558,463.21 648.944,449.628 645.566,449.084C642.479,448.588 642.465,448.964 606.483,449.073C601.54,449.088 603.591,451.537 603.635,456.496C603.641,457.157 603.65,458.225 609.713,462.088C610.797,462.779 622.168,461.523 620.707,465.634C620.244,466.935 588.72,466.532 231.5,466.486C198.279,466.482 193.658,466.856 196.664,463.66C196.868,463.444 203.757,462.155 200.95,459.154C200.711,458.899 194.634,456.126 191.416,457.272C183.704,460.016 163.614,456.94 160.723,459.72C160.154,460.267 154.792,465.424 151.09,461.825C149.114,459.904 155.141,458.923 155.565,458.854C158.376,458.397 158.074,455.466 162.478,455.248C166.55,455.048 168.438,456.536 168.475,452.5C168.592,440.007 166.841,437.611 172.362,435.186C183.832,430.148 185.06,427.343 190.337,429.854C195.919,432.511 200.901,436.464 201.831,432.584C203.353,426.233 213.13,431.262 213.272,427.47C213.69,416.326 210.673,409.242 219.501,409.274C259.971,409.422 261.922,408.428 262.548,412.493C263.08,415.948 261.443,428.353 264.362,428.996C264.998,429.136 264.985,428.342 272.478,429.622C273.507,429.798 273.451,428.539 285.499,428.807C290.857,428.926 286.193,414.538 288.701,406.57C290.064,402.238 286.991,387.461 290.774,384.956C293.877,382.902 299.266,349.787 301.728,359.397C302.242,361.403 307.954,383.694 308.672,384.331C312.838,388.026 310.8,389.005 311.11,404.508C311.181,408.047 312.055,407.872 311.942,411.51C311.425,428.166 312.048,428.619 313.42,428.86C314.217,428.999 314.258,427.631 323.531,429.24C324.562,429.419 324.376,427.737 336.496,427.431C340.92,427.319 336.946,420.167 338.48,416.49C339.705,413.555 338.885,407.006 346.647,401.721C349.643,399.68 348.596,399.002 349.361,395.474C349.902,392.975 352.238,392.236 352.45,390.489C352.487,390.178 353.435,382.375 355.132,387.646C356.029,390.434 355.039,390.88 357.144,392.901C360.11,395.748 357.915,399.023 359.584,400.41C364.877,404.809 366.29,403.931 368.137,410.598C369.089,414.037 368.605,414.069 369.753,417.404C370.332,419.087 366.843,427.302 371.507,427.375C375.963,427.446 380.331,429.303 379.203,422.571C378.793,420.125 379.864,419.991 403.613,409.769C405.825,408.817 408.88,407.502 432.264,418.964C438.653,422.096 429.706,429.625 436.48,429.854C452.841,430.406 453.321,429.855 453.508,428.502C454.134,423.956 451.807,418.982 454.639,417.748C469.147,411.424 482.163,406.659 484.586,405.773C486.314,405.14 493.67,408.48 513.548,416.374C517.492,417.941 518.164,418.268 517.399,422.489C517.359,422.709 517.143,431.646 517.792,432.225C519.254,433.531 527.486,427.226 532.494,427.193C552.794,427.061 553.001,426.796 561.324,430.864C571.789,435.979 573.93,435.616 572.875,440.566C572.824,440.805 571.951,450.304 574.498,450.514C583.606,451.266 585.413,447.987 590.723,455.351C591.991,457.11 600.006,458.411 600.124,454.483C600.276,449.458 598.191,448.172 602.646,445.799C603.099,445.558 603.114,445.16 644.498,445.204C657.064,445.217 647.27,457.601 652.36,458.982C655.951,459.957 886.773,457.832 888.615,460.421C890.553,463.148 886.58,462.789 732.501,462.821ZM365.834,422.492C365.696,421.744 366.244,419.925 363.489,419.85C361.895,419.807 348.61,419.445 343.566,419.867C341.855,420.01 342.051,425.084 342.069,425.554C342.186,428.572 351.689,428.058 352.213,426.368C352.315,426.039 354.3,419.633 356.133,424.602C357.706,428.865 358.957,427.531 363.498,427.434C366.857,427.363 365.638,425.832 365.834,422.492ZM361.662,406.337C348.248,394.983 341.779,413.039 342.464,415.514C342.89,417.055 364.764,416.874 365.253,415.403C366.501,411.651 362.187,406.914 361.662,406.337ZM175.52,438.667C170.08,440.058 171.733,441.914 171.71,447.499C171.708,448.076 171.682,454.358 172.369,454.681C173.391,455.163 173.368,454.548 186.495,454.791C189.339,454.844 191.196,452.701 194.517,453.418C195.054,453.534 200.728,454.759 201.385,453.444C201.508,453.199 202.584,440.306 200.64,439.27C197.543,437.619 194.569,439.75 175.52,438.667ZM468.501,417.334C455.742,418.451 457.017,422.209 457.163,427.517C457.291,432.187 462.293,427.698 481.424,431.788C489.736,433.564 482.925,450.831 487.5,450.481C497.678,449.701 497.607,451.234 498.473,451.08C504.436,450.016 504.43,450.844 510.505,450.604C515.175,450.42 513.861,447.614 513.88,429.505C513.885,424.759 516.788,418.172 503.497,417.669C479.671,417.31 479.72,417.996 468.501,417.334ZM497.591,432.505C498.902,423.855 503.482,434.913 500.58,437.6C497.766,440.208 497.602,432.978 497.591,432.505ZM310.503,462.701C317.15,462.666 324.407,463.61 324.476,460.499C325.043,434.909 324.47,434.456 322.594,433.351C318.243,430.789 316.033,432.089 311.553,432.743C307.312,433.362 309.247,430.487 308.467,411.505C308.425,410.489 308.035,409.8 293.467,410.112C289.659,410.193 291.675,412.397 291.447,428.498C291.33,436.741 285.634,429.27 276.351,433.137C275.055,433.677 273.201,434.449 274.198,450.553C274.304,452.266 276.272,452.361 276.507,452.372C278.063,452.448 290.595,453.053 295.231,457.759C297.38,459.941 297.686,459.399 300.406,460.716C305.162,463.019 305.26,462.663 310.503,462.701ZM301.429,443.5C301.007,450.618 297.796,446.796 297.696,446.429C297.286,444.918 297.389,441.276 298.627,440.807C301.026,439.897 301.094,440.955 301.429,443.5ZM283.335,443.491C283.816,441.604 283.64,440.773 285.575,441.295C287.035,441.689 286.63,445.172 286.59,445.517C286.555,445.822 283.892,449.62 283.335,443.491ZM301.513,422.501C300.297,427.618 298.269,423.801 298.226,422.509C298.001,415.852 301.155,418.218 301.309,418.586C301.43,418.875 301.324,418.876 301.513,422.501ZM311.098,444.496C311.399,441.992 311.065,440.585 313.489,441.528C314.877,442.067 314.48,445.168 314.439,445.492C314.404,445.768 311.97,451.17 311.098,444.496ZM285.502,462.671C292.001,462.502 292.035,462.81 292.493,462.489C297.012,459.323 274.455,452.531 274.136,457.445C273.625,465.301 277.625,462.664 285.502,462.671ZM422.38,418.791C408.931,413.254 408.265,411.826 403.598,413.739C383.793,421.858 383.361,421.809 382.996,423.6C382.335,426.848 383.187,427.122 386.495,427.541C392.534,428.307 389.087,443.77 389.927,450.456C390.017,451.173 390.379,454.051 398.482,453.343C408.791,452.444 405.118,463.802 415.508,462.535C417.221,462.326 416.448,461.367 416.916,436.507C417.013,431.335 423.05,431.599 428.551,430.774C432.061,430.248 430.345,422.705 430.299,422.618C429.448,421.009 429.005,421.569 422.38,418.791ZM405.45,434.5C404.709,441.854 401.601,436.837 401.563,436.489C400.921,430.655 402.206,430.111 402.698,429.902C405.235,428.827 405.434,434.072 405.45,434.5ZM237.5,462.721C238.006,462.663 242.476,464.088 240.875,455.431C239.587,448.466 232.47,453.972 234.504,461.499C234.918,463.028 237.429,462.716 237.5,462.721ZM336.501,462.72C384.761,462.648 384.826,462.884 385.454,462.413C387.73,460.702 386.379,434.919 386.253,432.531C386.147,430.49 385.109,430.8 361.491,430.9C345.997,430.965 346.095,430.83 330.511,430.841C327.529,430.844 328,432.682 327.994,441.5C327.982,459.717 327.173,462.665 330.493,462.7C332.496,462.721 334.498,462.699 336.501,462.72ZM338.588,443.5C338.712,441.72 338.657,441.718 338.722,441.578C339.755,439.343 343.053,439.712 342.262,445.463C342.217,445.793 339.268,450.443 338.588,443.5ZM371.317,443.498C371.506,441.655 371.474,441.661 371.521,441.508C372.27,439.11 375.626,440.063 374.757,445.546C374.707,445.862 371.88,450.049 371.317,443.498ZM354.173,444.505C354.28,441.699 353.916,441.674 354.649,440.6C357.691,436.145 360.629,445.277 358.385,447.393C354.766,450.805 354.211,444.912 354.173,444.505ZM295.496,388.264C294.752,388.331 292.518,387.784 292.471,390.498C292.215,405.52 292.487,406.677 294.469,406.747C305.187,407.127 307.542,406.948 307.566,404.502C307.578,403.302 307.708,390.316 307.507,389.498C307.014,387.499 299.583,388.23 295.496,388.264ZM297.922,397.52C299.803,388.284 303.664,400.007 301.315,402.306C298.06,405.491 297.93,397.989 297.922,397.52ZM527.505,435.716C537.964,435.703 537.795,434.656 541.789,432.963C542.022,432.864 548.262,430.219 543.554,430.328C532.126,430.59 531.939,430.008 521.427,434.438C517.339,436.161 527.009,435.737 527.505,435.716ZM352.352,397.511C354.36,403.097 356.611,396.195 354.673,395.228C352.708,394.247 352.763,395.367 352.352,397.511ZM254.496,462.702C265.485,462.686 270.644,463.544 270.59,460.501C270.367,447.958 270.499,448.014 270.433,435.499C270.393,427.853 260.383,437.035 259.258,429.535C258.707,425.867 260.538,413.718 257.623,413.015C250.353,411.26 252.787,418.481 249.538,418.036C246.902,417.675 248.777,413.052 245.486,412.933C241.488,412.788 240.646,412.617 239.749,416.58C239.667,416.943 237.017,421.604 235.597,414.476C235.178,412.377 228.668,412.336 228.23,414.416C226.105,424.489 223.569,413.667 223.451,413.549C222.627,412.726 217.037,412.493 216.858,414.553C215.599,429.04 218.673,433.755 211.527,432.353C205.003,431.073 205.32,433.87 205.298,440.498C205.232,461.043 204.414,462.74 207.488,462.745C228.798,462.777 228.926,463.435 230.417,462.365C231.141,461.846 230.087,447.454 238.454,448.901C247.418,450.45 242.148,462.574 246.488,462.677C247.129,462.693 247.081,462.679 254.496,462.702ZM393.501,462.698C398.275,462.647 404.626,463.168 404.561,461.501C404.535,460.823 402.02,456.678 399.506,456.436C391.904,455.703 389.908,454.511 389.92,458.498C389.933,462.733 391.157,462.363 393.501,462.698ZM428.505,462.714C443.923,462.678 479.61,462.755 480.515,462.629C482.508,462.352 482.647,461.421 482.148,437.526C482.09,434.781 476.137,435.474 469.5,435.471C421.699,435.455 421.189,435.354 420.642,436.562C420.268,437.388 420.412,461.19 420.498,461.501C421.134,463.804 422.103,462.564 428.505,462.714ZM432.618,447.5C432.64,447.188 432.86,444.038 434.517,444.081C436.724,444.138 436.195,448.097 436.146,448.468C435.92,450.157 432.925,452.748 432.618,447.5ZM469.399,447.5C469.005,452.879 465.935,450.219 465.794,448.479C465.335,442.801 468.578,443.877 469.249,445.571C469.306,445.715 469.26,445.714 469.399,447.5ZM448.601,447.504C449.017,444.494 448.873,442.864 451.677,444.176C453.201,444.889 452.749,449.388 452.723,449.539C452.658,449.901 449.109,455.581 448.601,447.504ZM557.502,462.713C601.135,462.543 603.507,463.538 602.391,461.576C600.304,457.903 591.314,464.594 586.455,455.528C584.858,452.548 573.416,453.73 572.871,454.716C568.323,462.934 569.602,447.436 569.559,441.498C569.536,438.414 568.581,438.615 555.356,431.792C552.222,430.175 551.587,431.59 539.65,437.797C535.36,440.028 538.963,444.077 536.444,445.231C536.072,445.401 535.31,445.534 534.619,440.462C534.454,439.257 534.044,438.688 519.465,439.156C516.412,439.254 517.479,448.152 517.485,448.501C517.552,452.431 519.499,450.552 523.493,450.653C531.698,450.862 529.536,455.27 532.617,456.192C536.08,457.229 536.521,456.97 537.971,460.299C539.393,463.563 542.289,462.742 557.502,462.713ZM550.54,448.498C550.745,442.401 553.184,444.264 553.489,444.517C556.403,446.932 552.118,455.832 550.54,448.498ZM527.205,446.494C526.847,446.708 526.881,447.328 526.524,447.542C524.443,448.791 524.347,443.756 526.595,445.379C526.939,445.627 526.861,446.246 527.205,446.494ZM303.848,380.402C300.683,367.813 300.091,365.87 299.494,367.494C297.733,372.286 295.757,382.206 295.499,383.5C295.371,384.142 295.285,385.782 303.577,384.76C306.426,384.409 304.595,383.17 303.848,380.402ZM490.5,462.705C532.759,462.701 535.897,463.738 534.528,460.487C533.742,458.62 529.364,460.517 527.907,457.333C525.397,451.846 523.477,454.471 516.526,454.03C508.208,453.502 505.182,452.628 499.437,454.256C497.624,454.77 486.318,451.269 485.873,455.556C485.822,456.053 485.327,460.822 486.017,461.796C486.914,463.063 487.205,462.491 490.5,462.705Z" style="fill:rgb(68,36,13);stroke:rgb(68,36,13);stroke-width:0.18px;stroke-linecap:butt;stroke-miterlimit:2;"/>
            </g>
            <g transform="matrix(3.996152,0,0,3.996152,-145.579488,-208.32364)">
                <path d="M249.515,282.782C255.854,283.05 255.583,284.025 258.49,284.602C260.856,285.071 263.068,271.282 279.529,269.761C299.759,267.891 304.467,286.468 305.418,286.729C310.308,288.069 313.392,281.705 322.66,293.377C325.063,296.404 333.288,292.258 337.307,297.649C340.969,302.563 343.56,300.109 346.083,305.683C348.774,311.629 328.654,309.723 324.507,310.531C310.481,313.264 310.399,313.338 296.464,310.653C290.742,309.551 283.716,314.635 269.447,310.697C257.43,307.38 254.764,316.455 234.485,310.557C231.841,309.788 197.678,313.218 206.826,305.979C210.154,303.346 208.854,301.661 212.568,300.782C215.979,299.974 215.784,299.629 217.988,296.936C223.318,290.426 233.154,296.237 235.091,292.333C239.458,283.531 244.593,283.718 249.515,282.782ZM315.528,308.889C319.717,308.431 319.473,307.688 323.557,306.888C324.887,306.628 324.926,307.726 340.493,306.484C344.688,306.15 336.394,302.933 335.879,302.252C331.336,296.231 330.051,298.183 322.497,299.095C318.928,299.526 321.519,292.873 312.591,290.114C306.876,288.348 295.173,296.439 299.778,290.714C305.424,283.694 289.376,268.523 274.56,274.666C259.722,280.818 265.234,293.178 258.708,289.17C245.343,280.962 238.449,292.975 237.867,294.667C236.582,298.394 236.075,299.062 232.36,297.883C231.386,297.574 223.401,295.039 219.903,300.719C216.835,305.701 211.075,302.612 211.49,306.504C211.652,308.015 234.593,306.453 235.451,306.712C254.5,312.461 260.423,303.964 266.642,306.132C285.905,312.847 289.695,305.905 295.445,306.883C305.482,308.591 305.411,308.658 315.528,308.889Z" style="fill:rgb(68,36,13);stroke:rgb(68,36,13);stroke-width:0.18px;stroke-linecap:butt;stroke-miterlimit:2;"/>
            </g>
            <g transform="matrix(3.996152,0,0,3.996152,-145.579488,-208.32364)">
                <path d="M703.567,308.855C707.069,308.559 707.008,308.811 710.487,308.961C712.671,309.056 713.606,305.809 714.613,304.592C721.858,295.833 731.813,302.973 733.275,300.382C744.637,280.254 765.732,291.126 770.035,300.718C772.766,306.809 778.29,298.943 785.193,307.737C789.921,313.76 793.692,307.169 799.126,312.867C803.332,317.277 804.931,314.304 809.446,317.582C819.901,325.173 791.756,323.721 790.532,323.765C788.342,323.843 786.563,327.061 768.475,324.7C762.367,323.903 762.419,322.655 756.404,324.117C747.443,326.296 746.196,322.316 737.436,324.09C723.027,327.007 715.109,323.081 713.477,323.193C707.418,323.609 707.503,323.647 701.505,323.287C701.375,323.28 689.478,323.914 691.729,319.641C693.498,316.284 692.027,315.127 695.498,313.496C699.746,311.499 699.156,310.57 703.567,308.855ZM773.538,322.055C783.137,322.328 783.465,322.668 788.551,320.643C790.993,319.671 809.192,321.721 805.168,318.884C801.986,316.64 800.643,319.536 797.042,315.898C791.656,310.457 786.077,316.639 783.761,312.375C776.804,299.568 770.156,311.099 767.954,307.226C767.381,306.218 768.255,299.698 759.397,294.705C757.091,293.405 740.415,288.103 735.485,304.495C733.866,309.88 724.6,297.023 716.788,307.7C715.283,309.757 715.624,314.376 711.659,313.085C702.697,310.166 703.225,313.886 700.563,315.573C699.514,316.238 695.765,316.237 695.907,318.538C696.136,322.251 711.143,318.532 718.417,320.739C728.391,323.765 737.045,318.354 744.467,320.605C746.524,321.228 750.927,321.848 754.447,321.153C763.944,319.278 763.945,320.747 773.538,322.055Z" style="fill:rgb(68,36,13);stroke:rgb(68,36,13);stroke-width:0.18px;stroke-linecap:butt;stroke-miterlimit:2;"/>
            </g>
            <g transform="matrix(3.996152,0,0,3.996152,-145.579488,-208.32364)">
                <path d="M649.35,321.834C690.076,340.08 689.857,349.033 735.51,365.467C768.19,377.231 766.608,381.599 830.376,399.928C836.356,401.646 879.564,416.058 907.433,423.698C907.994,423.852 914.481,425.631 914.152,426.467C913.762,427.461 913.177,427.566 887.593,421.101C883.058,419.955 804.363,397.148 780.397,387.758C774.781,385.557 732.118,368.84 710.531,359.426C695.819,353.009 670.159,334.743 648.514,325.466C596.396,303.127 580.094,268.535 558.63,275.933C549.803,278.976 549.777,279.881 540.579,278.182C529.288,276.097 527.468,287.297 507.616,282.037C486.147,276.349 484.629,277.037 464.2,292.086C399.81,339.519 310.637,372.425 310.595,367.504C310.569,364.386 325.294,364.16 382.367,336.217C477.011,289.88 471.893,267.188 503.425,276.786C516.971,280.909 517.44,280.851 530.616,275.827C541.621,271.63 544.591,277.993 551.342,275.134C577.506,264.051 576.938,276.873 625.185,308.95C637.286,316.995 643.948,319.568 649.35,321.834Z" style="fill:rgb(68,36,13);stroke:rgb(68,36,13);stroke-width:0.18px;stroke-linecap:butt;stroke-miterlimit:2;"/>
            </g>
            <g transform="matrix(3.996152,0,0,3.996152,-145.579488,-208.32364)">
                <path d="M338.588,443.5C338.712,441.72 338.657,441.718 338.722,441.578C339.755,439.343 343.053,439.712 342.262,445.463C342.217,445.793 339.268,450.443 338.588,443.5ZM371.317,443.498C371.506,441.655 371.474,441.661 371.521,441.508C372.27,439.11 375.626,440.063 374.757,445.546C374.707,445.862 371.88,450.049 371.317,443.498ZM354.173,444.505C354.28,441.699 353.916,441.674 354.649,440.6C357.691,436.145 360.629,445.277 358.385,447.393C354.766,450.805 354.211,444.912 354.173,444.505Z" style="fill:rgb(68,36,13);stroke:rgb(68,36,13);stroke-width:0.18px;stroke-linecap:butt;stroke-miterlimit:2;"/>
            </g>
            <g transform="matrix(3.996152,0,0,3.996152,-145.579488,-208.32364)">
                <path d="M283.335,443.491C283.816,441.604 283.64,440.773 285.575,441.295C287.035,441.689 286.63,445.172 286.59,445.517C286.555,445.822 283.892,449.62 283.335,443.491ZM301.429,443.5C301.007,450.618 297.796,446.796 297.696,446.429C297.286,444.918 297.389,441.276 298.627,440.807C301.026,439.897 301.094,440.955 301.429,443.5ZM301.513,422.501C300.297,427.618 298.269,423.801 298.226,422.509C298.001,415.852 301.155,418.218 301.309,418.586C301.43,418.875 301.324,418.876 301.513,422.501ZM311.098,444.496C311.399,441.992 311.065,440.585 313.489,441.528C314.877,442.067 314.48,445.168 314.439,445.492C314.404,445.768 311.97,451.17 311.098,444.496Z" style="fill:rgb(68,36,13);stroke:rgb(68,36,13);stroke-width:0.18px;stroke-linecap:butt;stroke-miterlimit:2;"/>
            </g>
            <g transform="matrix(3.996152,0,0,3.996152,-145.579488,-208.32364)">
                <path d="M448.601,447.504C449.017,444.494 448.873,442.864 451.677,444.176C453.201,444.889 452.749,449.388 452.723,449.539C452.658,449.901 449.109,455.581 448.601,447.504ZM469.399,447.5C469.005,452.879 465.935,450.219 465.794,448.479C465.335,442.801 468.578,443.877 469.249,445.571C469.306,445.715 469.26,445.714 469.399,447.5ZM432.618,447.5C432.64,447.188 432.86,444.038 434.517,444.081C436.724,444.138 436.195,448.097 436.146,448.468C435.92,450.157 432.925,452.748 432.618,447.5Z" style="fill:rgb(68,36,13);stroke:rgb(68,36,13);stroke-width:0.18px;stroke-linecap:butt;stroke-miterlimit:2;"/>
            </g>
            <g transform="matrix(3.996152,0,0,3.996152,-145.579488,-208.32364)">
                <path d="M527.205,446.494C526.847,446.708 526.881,447.328 526.524,447.542C524.443,448.791 524.347,443.756 526.595,445.379C526.939,445.627 526.861,446.246 527.205,446.494ZM550.54,448.498C550.745,442.401 553.184,444.264 553.489,444.517C556.403,446.932 552.118,455.832 550.54,448.498Z" style="fill:rgb(68,36,13);stroke:rgb(68,36,13);stroke-width:0.18px;stroke-linecap:butt;stroke-miterlimit:2;"/>
            </g>
            <g transform="matrix(3.996152,0,0,3.996152,-145.579488,-208.32364)">
                <path d="M405.45,434.5C404.709,441.854 401.601,436.837 401.563,436.489C400.921,430.655 402.206,430.111 402.698,429.902C405.235,428.827 405.434,434.072 405.45,434.5Z" style="fill:rgb(68,36,13);stroke:rgb(68,36,13);stroke-width:0.18px;stroke-linecap:butt;stroke-miterlimit:2;"/>
            </g>
            <g transform="matrix(3.996152,0,0,3.996152,-145.579488,-208.32364)">
                <path d="M497.591,432.505C498.902,423.855 503.482,434.913 500.58,437.6C497.766,440.208 497.602,432.978 497.591,432.505Z" style="fill:rgb(68,36,13);stroke:rgb(68,36,13);stroke-width:0.18px;stroke-linecap:butt;stroke-miterlimit:2;"/>
            </g>
            <g transform="matrix(3.996152,0,0,3.996152,-145.579488,-208.32364)">
                <path d="M640.415,357.637C654.615,365.4 681.08,383.77 742.329,402.993C746.442,404.283 743.743,405.591 743.514,405.601C741.993,405.665 702.607,393.541 692.636,389.166C672.748,380.439 672.891,380.27 628.66,355.231C620.405,350.557 594.105,328.455 602.563,331.334C605.418,332.306 612.287,342.304 640.415,357.637Z" style="fill:rgb(68,36,13);stroke:rgb(68,36,13);stroke-width:0.18px;stroke-linecap:butt;stroke-miterlimit:2;"/>
            </g>
            <g transform="matrix(3.996152,0,0,3.996152,-145.579488,-208.32364)">
                <path d="M264.614,379.912C282.588,375.297 285.044,374.279 283.925,376.622C282.814,378.951 257.907,385.288 255.596,385.875C236.732,390.674 153.483,417.624 151.519,416.461C149.218,415.099 156.148,413.039 156.625,412.897C188.997,403.271 217.318,391.833 264.614,379.912Z" style="fill:rgb(68,36,13);stroke:rgb(68,36,13);stroke-width:0.18px;stroke-linecap:butt;stroke-miterlimit:2;"/>
            </g>
            <g transform="matrix(3.996152,0,0,3.996152,-145.579488,-208.32364)">
                <path d="M414.443,344.406C428.58,337.122 437.865,333.929 455.408,322.361C474.752,309.606 487.579,297.116 490.419,295.304C492.154,294.197 492.889,295.869 491.353,297.38C472.175,316.247 454.227,327.61 450.712,329.835C432.702,341.237 390.403,358.962 389.377,358.801C384.249,357.996 399.193,352.825 414.443,344.406Z" style="fill:rgb(68,36,13);stroke:rgb(68,36,13);stroke-width:0.18px;stroke-linecap:butt;stroke-miterlimit:2;"/>
            </g>
            <g transform="matrix(3.996152,0,0,3.996152,-145.579488,-208.32364)">
                <path d="M582.373,366.694C580.214,365.248 566.148,355.828 558.92,344.22C554.063,336.419 544.807,314.151 544.734,313.489C543.596,303.154 556.346,333.464 563.947,345.183C575.104,362.384 624.941,387.183 625.368,387.622C629.061,391.418 622.67,388.712 622.442,388.616C601.354,379.689 602.073,378.394 582.373,366.694Z" style="fill:rgb(68,36,13);stroke:rgb(68,36,13);stroke-width:0.18px;stroke-linecap:butt;stroke-miterlimit:2;"/>
            </g>
            <g transform="matrix(3.996152,0,0,3.996152,-145.579488,-208.32364)">
                <path d="M339.508,481.928C316.14,482.745 259.709,482.057 258.691,481.252C254.559,477.981 260.985,478.38 324.5,478.444C332.177,478.452 363.029,478.937 363.428,478.984C365.337,479.206 365.413,481.241 363.47,481.355C357.507,481.703 341.425,481.904 339.508,481.928Z" style="fill:rgb(68,36,13);stroke:rgb(68,36,13);stroke-width:0.18px;stroke-linecap:butt;stroke-miterlimit:2;"/>
            </g>
            <g transform="matrix(3.996152,0,0,3.996152,-145.579488,-208.32364)">
                <path d="M466.495,482.082C431.934,482.535 399.022,481.627 398.586,481.346C394.228,478.538 400.513,479.116 438.499,478.422C439.644,478.401 497.281,478.099 498.054,479.735C499.136,482.024 496.888,481.603 466.495,482.082Z" style="fill:rgb(68,36,13);stroke:rgb(68,36,13);stroke-width:0.18px;stroke-linecap:butt;stroke-miterlimit:2;"/>
            </g>
            <g transform="matrix(3.996152,0,0,3.996152,-145.579488,-208.32364)">
                <path d="M584.498,481.936C561.296,481.57 555.793,481.684 554.594,481.249C554.37,481.167 551.944,478.997 556.519,478.959C588.12,478.699 610.032,478.313 620.5,478.494C651.66,479.034 653.661,477.842 653.178,480.416C652.717,482.871 589.993,482.011 584.498,481.936Z" style="fill:rgb(68,36,13);stroke:rgb(68,36,13);stroke-width:0.18px;stroke-linecap:butt;stroke-miterlimit:2;"/>
            </g>
            <g transform="matrix(3.996152,0,0,3.996152,-145.579488,-208.32364)">
                <path d="M490.502,492.899C523.333,492.269 529.327,492.358 544.5,492.663C559.39,492.962 570.032,492.733 567.269,495.217C566.332,496.06 519.073,496.382 502.507,496.099C478.167,495.683 477.881,495.198 477.865,494.487C477.821,492.551 488.033,492.957 490.502,492.899Z" style="fill:rgb(68,36,13);stroke:rgb(68,36,13);stroke-width:0.18px;stroke-linecap:butt;stroke-miterlimit:2;"/>
            </g>
            <g transform="matrix(3.996152,0,0,3.996152,-145.579488,-208.32364)">
                <path d="M732.501,477.412C700.097,476.723 697.052,477.048 698.904,474.874C700.04,473.541 786.243,473.858 788.513,474.47C800.846,477.794 745.635,477.655 732.501,477.412Z" style="fill:rgb(68,36,13);stroke:rgb(68,36,13);stroke-width:0.18px;stroke-linecap:butt;stroke-miterlimit:2;"/>
            </g>
            <g transform="matrix(3.996152,0,0,3.996152,-145.579488,-208.32364)">
                <path d="M297.922,397.52C299.803,388.284 303.664,400.007 301.315,402.306C298.06,405.491 297.93,397.989 297.922,397.52Z" style="fill:rgb(68,36,13);stroke:rgb(68,36,13);stroke-width:0.18px;stroke-linecap:butt;stroke-miterlimit:2;"/>
            </g>
            <g transform="matrix(3.996152,0,0,3.996152,-145.579488,-208.32364)">
                <path d="M355.493,492.936C363.21,492.843 419.322,491.326 419.277,494.477C419.262,495.521 418.674,495.608 392.489,496.064C380.8,496.268 341.364,495.928 340.622,495.336C336.95,492.409 353.714,492.968 355.493,492.936Z" style="fill:rgb(68,36,13);stroke:rgb(68,36,13);stroke-width:0.18px;stroke-linecap:butt;stroke-miterlimit:2;"/>
            </g>
            <g transform="matrix(3.996152,0,0,3.996152,-145.579488,-208.32364)">
                <path d="M493.34,335.322C517.829,314.559 518.475,304.077 522.532,301.564C527.967,298.197 516.634,316.664 510.242,324.291C500.676,335.704 478.745,350.432 478.498,350.454C474.136,350.831 478.816,348.439 493.34,335.322Z" style="fill:rgb(68,36,13);stroke:rgb(68,36,13);stroke-width:0.18px;stroke-linecap:butt;stroke-miterlimit:2;"/>
            </g>
            <g transform="matrix(3.996152,0,0,3.996152,-145.579488,-208.32364)">
                <path d="M204.498,472.399C241.633,472.286 247.915,473.295 244.388,475.254C243.86,475.547 181.855,475.643 180.732,475.088C174.528,472.021 196.684,472.452 204.498,472.399Z" style="fill:rgb(68,36,13);stroke:rgb(68,36,13);stroke-width:0.18px;stroke-linecap:butt;stroke-miterlimit:2;"/>
            </g>
            <g transform="matrix(3.996152,0,0,3.996152,-145.579488,-208.32364)">
                <path d="M468.501,417.334C472.916,412.821 485.632,408.968 486.548,409.341C487.514,409.734 498.009,414.003 498.586,414.339C501.168,415.847 501.234,415.615 503.497,417.669C479.671,417.31 479.72,417.996 468.501,417.334Z" style="fill:rgb(68,36,13);stroke:rgb(68,36,13);stroke-width:0.18px;stroke-linecap:butt;stroke-miterlimit:2;"/>
            </g>
            <g transform="matrix(3.996152,0,0,3.996152,-145.579488,-208.32364)">
                <path d="M520.5,477.499C519.607,477.519 503.329,477.883 509.659,474.837C509.687,474.824 509.679,474.442 534.498,474.551C534.753,474.553 538.278,474.568 537.151,476.32C536.393,477.5 531.584,477.261 520.5,477.499Z" style="fill:rgb(68,36,13);stroke:rgb(68,36,13);stroke-width:0.18px;stroke-linecap:butt;stroke-miterlimit:2;"/>
            </g>
            <g transform="matrix(3.996152,0,0,3.996152,-145.579488,-208.32364)">
                <path d="M354.173,444.505C354.28,441.699 353.916,441.674 354.649,440.6C357.691,436.145 360.629,445.277 358.385,447.393C354.766,450.805 354.211,444.912 354.173,444.505Z" style="fill:rgb(68,36,13);stroke:rgb(68,36,13);stroke-width:0.18px;stroke-linecap:butt;stroke-miterlimit:2;"/>
            </g>
            <g transform="matrix(3.996152,0,0,3.996152,-145.579488,-208.32364)">
                <path d="M405.45,434.5C404.709,441.854 401.601,436.837 401.563,436.489C400.921,430.655 402.206,430.111 402.698,429.902C405.235,428.827 405.434,434.072 405.45,434.5Z" style="fill:rgb(68,36,13);stroke:rgb(68,36,13);stroke-width:0.18px;stroke-linecap:butt;stroke-miterlimit:2;"/>
            </g>
            <g transform="matrix(3.996152,0,0,3.996152,-145.579488,-208.32364)">
                <path d="M297.922,397.52C299.803,388.284 303.664,400.007 301.315,402.306C298.06,405.491 297.93,397.989 297.922,397.52Z" style="fill:rgb(68,36,13);stroke:rgb(68,36,13);stroke-width:0.18px;stroke-linecap:butt;stroke-miterlimit:2;"/>
            </g>
            <g transform="matrix(3.996152,0,0,3.996152,-145.579488,-208.32364)">
                <path d="M497.591,432.505C498.902,423.855 503.482,434.913 500.58,437.6C497.766,440.208 497.602,432.978 497.591,432.505Z" style="fill:rgb(68,36,13);stroke:rgb(68,36,13);stroke-width:0.18px;stroke-linecap:butt;stroke-miterlimit:2;"/>
            </g>
            <g transform="matrix(3.996152,0,0,3.996152,-145.579488,-208.32364)">
                <path d="M448.601,447.504C449.017,444.494 448.873,442.864 451.677,444.176C453.201,444.889 452.749,449.388 452.723,449.539C452.658,449.901 449.109,455.581 448.601,447.504Z" style="fill:rgb(68,36,13);stroke:rgb(68,36,13);stroke-width:0.18px;stroke-linecap:butt;stroke-miterlimit:2;"/>
            </g>
            <g transform="matrix(3.996152,0,0,3.996152,-145.579488,-208.32364)">
                <path d="M301.429,443.5C301.007,450.618 297.796,446.796 297.696,446.429C297.286,444.918 297.389,441.276 298.627,440.807C301.026,439.897 301.094,440.955 301.429,443.5Z" style="fill:rgb(68,36,13);stroke:rgb(68,36,13);stroke-width:0.18px;stroke-linecap:butt;stroke-miterlimit:2;"/>
            </g>
            <g transform="matrix(3.996152,0,0,3.996152,-145.579488,-208.32364)">
                <path d="M550.54,448.498C550.745,442.401 553.184,444.264 553.489,444.517C556.403,446.932 552.118,455.832 550.54,448.498Z" style="fill:rgb(68,36,13);stroke:rgb(68,36,13);stroke-width:0.18px;stroke-linecap:butt;stroke-miterlimit:2;"/>
            </g>
            <g transform="matrix(3.996152,0,0,3.996152,-145.579488,-208.32364)">
                <path d="M338.588,443.5C338.712,441.72 338.657,441.718 338.722,441.578C339.755,439.343 343.053,439.712 342.262,445.463C342.217,445.793 339.268,450.443 338.588,443.5Z" style="fill:rgb(68,36,13);stroke:rgb(68,36,13);stroke-width:0.18px;stroke-linecap:butt;stroke-miterlimit:2;"/>
            </g>
            <g transform="matrix(3.996152,0,0,3.996152,-145.579488,-208.32364)">
                <path d="M371.317,443.498C371.506,441.655 371.474,441.661 371.521,441.508C372.27,439.11 375.626,440.063 374.757,445.546C374.707,445.862 371.88,450.049 371.317,443.498Z" style="fill:rgb(68,36,13);stroke:rgb(68,36,13);stroke-width:0.18px;stroke-linecap:butt;stroke-miterlimit:2;"/>
            </g>
            <g transform="matrix(3.996152,0,0,3.996152,-145.579488,-208.32364)">
                <path d="M301.513,422.501C300.297,427.618 298.269,423.801 298.226,422.509C298.001,415.852 301.155,418.218 301.309,418.586C301.43,418.875 301.324,418.876 301.513,422.501Z" style="fill:rgb(68,36,13);stroke:rgb(68,36,13);stroke-width:0.18px;stroke-linecap:butt;stroke-miterlimit:2;"/>
            </g>
            <g transform="matrix(3.996152,0,0,3.996152,-145.579488,-208.32364)">
                <path d="M469.399,447.5C469.005,452.879 465.935,450.219 465.794,448.479C465.335,442.801 468.578,443.877 469.249,445.571C469.306,445.715 469.26,445.714 469.399,447.5Z" style="fill:rgb(68,36,13);stroke:rgb(68,36,13);stroke-width:0.18px;stroke-linecap:butt;stroke-miterlimit:2;"/>
            </g>
            <g transform="matrix(3.996152,0,0,3.996152,-145.579488,-208.32364)">
                <path d="M432.618,447.5C432.64,447.188 432.86,444.038 434.517,444.081C436.724,444.138 436.195,448.097 436.146,448.468C435.92,450.157 432.925,452.748 432.618,447.5Z" style="fill:rgb(68,36,13);stroke:rgb(68,36,13);stroke-width:0.18px;stroke-linecap:butt;stroke-miterlimit:2;"/>
            </g>
            <g transform="matrix(3.996152,0,0,3.996152,-145.579488,-208.32364)">
                <path d="M225.099,428.48C225.469,426.113 225.196,424.881 227.414,425.709C228.488,426.111 228.731,429.057 228.43,430.484C228.366,430.789 225.971,434.385 225.099,428.48Z" style="fill:rgb(68,36,13);stroke:rgb(68,36,13);stroke-width:0.18px;stroke-linecap:butt;stroke-miterlimit:2;"/>
            </g>
            <g transform="matrix(3.996152,0,0,3.996152,-145.579488,-208.32364)">
                <path d="M311.098,444.496C311.399,441.992 311.065,440.585 313.489,441.528C314.877,442.067 314.48,445.168 314.439,445.492C314.404,445.768 311.97,451.17 311.098,444.496Z" style="fill:rgb(68,36,13);stroke:rgb(68,36,13);stroke-width:0.18px;stroke-linecap:butt;stroke-miterlimit:2;"/>
            </g>
            <g transform="matrix(3.996152,0,0,3.996152,-145.579488,-208.32364)">
                <path d="M283.335,443.491C283.816,441.604 283.64,440.773 285.575,441.295C287.035,441.689 286.63,445.172 286.59,445.517C286.555,445.822 283.892,449.62 283.335,443.491Z" style="fill:rgb(68,36,13);stroke:rgb(68,36,13);stroke-width:0.18px;stroke-linecap:butt;stroke-miterlimit:2;"/>
            </g>
            <g transform="matrix(3.996152,0,0,3.996152,-145.579488,-208.32364)">
                <path d="M239.692,429.52C237.732,436.525 234.698,427.155 237.249,426.03C239.966,424.831 239.626,426.553 239.692,429.52Z" style="fill:rgb(68,36,13);stroke:rgb(68,36,13);stroke-width:0.18px;stroke-linecap:butt;stroke-miterlimit:2;"/>
            </g>
            <g transform="matrix(3.996152,0,0,3.996152,-145.579488,-208.32364)">
                <path d="M247.375,429.506C247.706,426.697 247.122,424.875 249.749,426.028C252.331,427.162 249.056,436.795 247.375,429.506Z" style="fill:rgb(68,36,13);stroke:rgb(68,36,13);stroke-width:0.18px;stroke-linecap:butt;stroke-miterlimit:2;"/>
            </g>
            <g transform="matrix(3.996152,0,0,3.996152,-145.579488,-208.32364)">
                <path d="M627.936,455.463C626.624,461.032 623.104,455.584 624.894,453.943C626.605,452.375 627.828,455.213 627.936,455.463Z" style="fill:rgb(68,36,13);stroke:rgb(68,36,13);stroke-width:0.18px;stroke-linecap:butt;stroke-miterlimit:2;"/>
            </g>
            <g transform="matrix(3.996152,0,0,3.996152,-145.579488,-208.32364)">
                <path d="M635.472,455.498C636.251,453.512 636.506,452.555 638.207,453.883C640.237,455.468 636.574,460.473 635.472,455.498Z" style="fill:rgb(68,36,13);stroke:rgb(68,36,13);stroke-width:0.18px;stroke-linecap:butt;stroke-miterlimit:2;"/>
            </g>
            <g transform="matrix(3.996152,0,0,3.996152,-145.579488,-208.32364)">
                <path d="M612.919,455.54C615.705,450.369 616.213,456.281 616.163,456.428C615.248,459.117 613.671,458.273 612.919,455.54Z" style="fill:rgb(68,36,13);stroke:rgb(68,36,13);stroke-width:0.18px;stroke-linecap:butt;stroke-miterlimit:2;"/>
            </g>
            <g transform="matrix(3.996152,0,0,3.996152,-145.579488,-208.32364)">
                <path d="M527.205,446.494C526.847,446.708 526.881,447.328 526.524,447.542C524.443,448.791 524.347,443.756 526.595,445.379C526.939,445.627 526.861,446.246 527.205,446.494Z" style="fill:rgb(68,36,13);stroke:rgb(68,36,13);stroke-width:0.18px;stroke-linecap:butt;stroke-miterlimit:2;"/>
            </g>
        </g>
    </g>
</svg>
