<?xml version="1.0" encoding="UTF-8" standalone="no"?>
<!DOCTYPE svg PUBLIC "-//W3C//DTD SVG 1.1//EN" "http://www.w3.org/Graphics/SVG/1.1/DTD/svg11.dtd">
<svg width="100%" height="100%" viewBox="0 0 3357 2243" version="1.1" xmlns="http://www.w3.org/2000/svg" xmlns:xlink="http://www.w3.org/1999/xlink" xml:space="preserve" xmlns:serif="http://www.serif.com/" style="fill-rule:evenodd;clip-rule:evenodd;stroke-linejoin:round;stroke-miterlimit:2;">
    <g transform="matrix(1,0,0,1,-280.606958,-789.087863)">
        <g transform="matrix(1,0,0,1,-15,246)">
            <g transform="matrix(1,0,0,1,-8.086684,-326.064319)">
                <g transform="matrix(3.996152,0,0,3.996152,-145.579488,-208.32364)">
                    <path d="M732.501,462.821C652.018,462.776 651.874,462.806 651.376,463.37C649.567,465.42 649.276,467.668 647.829,465.294C646.558,463.21 648.944,449.628 645.566,449.084C642.479,448.588 642.465,448.964 606.483,449.073C601.54,449.088 603.591,451.537 603.635,456.496C603.641,457.157 603.65,458.225 609.713,462.088C610.797,462.779 622.168,461.523 620.707,465.634C620.244,466.935 588.72,466.532 231.5,466.486C198.279,466.482 193.658,466.856 196.664,463.66C196.868,463.444 203.757,462.155 200.95,459.154C200.711,458.899 194.634,456.126 191.416,457.272C183.704,460.016 163.614,456.94 160.723,459.72C160.154,460.267 154.792,465.424 151.09,461.825C149.114,459.904 155.141,458.923 155.565,458.854C158.376,458.397 158.074,455.466 162.478,455.248C166.55,455.048 168.438,456.536 168.475,452.5C168.592,440.007 166.841,437.611 172.362,435.186C183.832,430.148 185.06,427.343 190.337,429.854C195.919,432.511 200.901,436.464 201.831,432.584C203.353,426.233 213.13,431.262 213.272,427.47C213.69,416.326 210.673,409.242 219.501,409.274C259.971,409.422 261.922,408.428 262.548,412.493C263.08,415.948 261.443,428.353 264.362,428.996C264.998,429.136 264.985,428.342 272.478,429.622C273.507,429.798 273.451,428.539 285.499,428.807C290.857,428.926 286.193,414.538 288.701,406.57C290.064,402.238 286.991,387.461 290.774,384.956C293.877,382.902 299.266,349.787 301.728,359.397C302.242,361.403 307.954,383.694 308.672,384.331C312.838,388.026 310.8,389.005 311.11,404.508C311.181,408.047 312.055,407.872 311.942,411.51C311.425,428.166 312.048,428.619 313.42,428.86C314.217,428.999 314.258,427.631 323.531,429.24C324.562,429.419 324.376,427.737 336.496,427.431C340.92,427.319 336.946,420.167 338.48,416.49C339.705,413.555 338.885,407.006 346.647,401.721C349.643,399.68 348.596,399.002 349.361,395.474C349.902,392.975 352.238,392.236 352.45,390.489C352.487,390.178 353.435,382.375 355.132,387.646C356.029,390.434 355.039,390.88 357.144,392.901C360.11,395.748 357.915,399.023 359.584,400.41C364.877,404.809 366.29,403.931 368.137,410.598C369.089,414.037 368.605,414.069 369.753,417.404C370.332,419.087 366.843,427.302 371.507,427.375C375.963,427.446 380.331,429.303 379.203,422.571C378.793,420.125 379.864,419.991 403.613,409.769C405.825,408.817 408.88,407.502 432.264,418.964C438.653,422.096 429.706,429.625 436.48,429.854C452.841,430.406 453.321,429.855 453.508,428.502C454.134,423.956 451.807,418.982 454.639,417.748C469.147,411.424 482.163,406.659 484.586,405.773C486.314,405.14 493.67,408.48 513.548,416.374C517.492,417.941 518.164,418.268 517.399,422.489C517.359,422.709 517.143,431.646 517.792,432.225C519.254,433.531 527.486,427.226 532.494,427.193C552.794,427.061 553.001,426.796 561.324,430.864C571.789,435.979 573.93,435.616 572.875,440.566C572.824,440.805 571.951,450.304 574.498,450.514C583.606,451.266 585.413,447.987 590.723,455.351C591.991,457.11 600.006,458.411 600.124,454.483C600.276,449.458 598.191,448.172 602.646,445.799C603.099,445.558 603.114,445.16 644.498,445.204C657.064,445.217 647.27,457.601 652.36,458.982C655.951,459.957 886.773,457.832 888.615,460.421C890.553,463.148 886.58,462.789 732.501,462.821ZM365.834,422.492C365.696,421.744 366.244,419.925 363.489,419.85C361.895,419.807 348.61,419.445 343.566,419.867C341.855,420.01 342.051,425.084 342.069,425.554C342.186,428.572 351.689,428.058 352.213,426.368C352.315,426.039 354.3,419.633 356.133,424.602C357.706,428.865 358.957,427.531 363.498,427.434C366.857,427.363 365.638,425.832 365.834,422.492ZM361.662,406.337C348.248,394.983 341.779,413.039 342.464,415.514C342.89,417.055 364.764,416.874 365.253,415.403C366.501,411.651 362.187,406.914 361.662,406.337ZM175.52,438.667C170.08,440.058 171.733,441.914 171.71,447.499C171.708,448.076 171.682,454.358 172.369,454.681C173.391,455.163 173.368,454.548 186.495,454.791C189.339,454.844 191.196,452.701 194.517,453.418C195.054,453.534 200.728,454.759 201.385,453.444C201.508,453.199 202.584,440.306 200.64,439.27C197.543,437.619 194.569,439.75 175.52,438.667ZM468.501,417.334C455.742,418.451 457.017,422.209 457.163,427.517C457.291,432.187 462.293,427.698 481.424,431.788C489.736,433.564 482.925,450.831 487.5,450.481C497.678,449.701 497.607,451.234 498.473,451.08C504.436,450.016 504.43,450.844 510.505,450.604C515.175,450.42 513.861,447.614 513.88,429.505C513.885,424.759 516.788,418.172 503.497,417.669C479.671,417.31 479.72,417.996 468.501,417.334ZM497.591,432.505C498.902,423.855 503.482,434.913 500.58,437.6C497.766,440.208 497.602,432.978 497.591,432.505ZM310.503,462.701C317.15,462.666 324.407,463.61 324.476,460.499C325.043,434.909 324.47,434.456 322.594,433.351C318.243,430.789 316.033,432.089 311.553,432.743C307.312,433.362 309.247,430.487 308.467,411.505C308.425,410.489 308.035,409.8 293.467,410.112C289.659,410.193 291.675,412.397 291.447,428.498C291.33,436.741 285.634,429.27 276.351,433.137C275.055,433.677 273.201,434.449 274.198,450.553C274.304,452.266 276.272,452.361 276.507,452.372C278.063,452.448 290.595,453.053 295.231,457.759C297.38,459.941 297.686,459.399 300.406,460.716C305.162,463.019 305.26,462.663 310.503,462.701ZM301.429,443.5C301.007,450.618 297.796,446.796 297.696,446.429C297.286,444.918 297.389,441.276 298.627,440.807C301.026,439.897 301.094,440.955 301.429,443.5ZM283.335,443.491C283.816,441.604 283.64,440.773 285.575,441.295C287.035,441.689 286.63,445.172 286.59,445.517C286.555,445.822 283.892,449.62 283.335,443.491ZM301.513,422.501C300.297,427.618 298.269,423.801 298.226,422.509C298.001,415.852 301.155,418.218 301.309,418.586C301.43,418.875 301.324,418.876 301.513,422.501ZM311.098,444.496C311.399,441.992 311.065,440.585 313.489,441.528C314.877,442.067 314.48,445.168 314.439,445.492C314.404,445.768 311.97,451.17 311.098,444.496ZM285.502,462.671C292.001,462.502 292.035,462.81 292.493,462.489C297.012,459.323 274.455,452.531 274.136,457.445C273.625,465.301 277.625,462.664 285.502,462.671ZM422.38,418.791C408.931,413.254 408.265,411.826 403.598,413.739C383.793,421.858 383.361,421.809 382.996,423.6C382.335,426.848 383.187,427.122 386.495,427.541C392.534,428.307 389.087,443.77 389.927,450.456C390.017,451.173 390.379,454.051 398.482,453.343C408.791,452.444 405.118,463.802 415.508,462.535C417.221,462.326 416.448,461.367 416.916,436.507C417.013,431.335 423.05,431.599 428.551,430.774C432.061,430.248 430.345,422.705 430.299,422.618C429.448,421.009 429.005,421.569 422.38,418.791ZM405.45,434.5C404.709,441.854 401.601,436.837 401.563,436.489C400.921,430.655 402.206,430.111 402.698,429.902C405.235,428.827 405.434,434.072 405.45,434.5ZM237.5,462.721C238.006,462.663 242.476,464.088 240.875,455.431C239.587,448.466 232.47,453.972 234.504,461.499C234.918,463.028 237.429,462.716 237.5,462.721ZM336.501,462.72C384.761,462.648 384.826,462.884 385.454,462.413C387.73,460.702 386.379,434.919 386.253,432.531C386.147,430.49 385.109,430.8 361.491,430.9C345.997,430.965 346.095,430.83 330.511,430.841C327.529,430.844 328,432.682 327.994,441.5C327.982,459.717 327.173,462.665 330.493,462.7C332.496,462.721 334.498,462.699 336.501,462.72ZM338.588,443.5C338.712,441.72 338.657,441.718 338.722,441.578C339.755,439.343 343.053,439.712 342.262,445.463C342.217,445.793 339.268,450.443 338.588,443.5ZM371.317,443.498C371.506,441.655 371.474,441.661 371.521,441.508C372.27,439.11 375.626,440.063 374.757,445.546C374.707,445.862 371.88,450.049 371.317,443.498ZM354.173,444.505C354.28,441.699 353.916,441.674 354.649,440.6C357.691,436.145 360.629,445.277 358.385,447.393C354.766,450.805 354.211,444.912 354.173,444.505ZM295.496,388.264C294.752,388.331 292.518,387.784 292.471,390.498C292.215,405.52 292.487,406.677 294.469,406.747C305.187,407.127 307.542,406.948 307.566,404.502C307.578,403.302 307.708,390.316 307.507,389.498C307.014,387.499 299.583,388.23 295.496,388.264ZM297.922,397.52C299.803,388.284 303.664,400.007 301.315,402.306C298.06,405.491 297.93,397.989 297.922,397.52ZM527.505,435.716C537.964,435.703 537.795,434.656 541.789,432.963C542.022,432.864 548.262,430.219 543.554,430.328C532.126,430.59 531.939,430.008 521.427,434.438C517.339,436.161 527.009,435.737 527.505,435.716ZM352.352,397.511C354.36,403.097 356.611,396.195 354.673,395.228C352.708,394.247 352.763,395.367 352.352,397.511ZM254.496,462.702C265.485,462.686 270.644,463.544 270.59,460.501C270.367,447.958 270.499,448.014 270.433,435.499C270.393,427.853 260.383,437.035 259.258,429.535C258.707,425.867 260.538,413.718 257.623,413.015C250.353,411.26 252.787,418.481 249.538,418.036C246.902,417.675 248.777,413.052 245.486,412.933C241.488,412.788 240.646,412.617 239.749,416.58C239.667,416.943 237.017,421.604 235.597,414.476C235.178,412.377 228.668,412.336 228.23,414.416C226.105,424.489 223.569,413.667 223.451,413.549C222.627,412.726 217.037,412.493 216.858,414.553C215.599,429.04 218.673,433.755 211.527,432.353C205.003,431.073 205.32,433.87 205.298,440.498C205.232,461.043 204.414,462.74 207.488,462.745C228.798,462.777 228.926,463.435 230.417,462.365C231.141,461.846 230.087,447.454 238.454,448.901C247.418,450.45 242.148,462.574 246.488,462.677C247.129,462.693 247.081,462.679 254.496,462.702ZM393.501,462.698C398.275,462.647 404.626,463.168 404.561,461.501C404.535,460.823 402.02,456.678 399.506,456.436C391.904,455.703 389.908,454.511 389.92,458.498C389.933,462.733 391.157,462.363 393.501,462.698ZM428.505,462.714C443.923,462.678 479.61,462.755 480.515,462.629C482.508,462.352 482.647,461.421 482.148,437.526C482.09,434.781 476.137,435.474 469.5,435.471C421.699,435.455 421.189,435.354 420.642,436.562C420.268,437.388 420.412,461.19 420.498,461.501C421.134,463.804 422.103,462.564 428.505,462.714ZM432.618,447.5C432.64,447.188 432.86,444.038 434.517,444.081C436.724,444.138 436.195,448.097 436.146,448.468C435.92,450.157 432.925,452.748 432.618,447.5ZM469.399,447.5C469.005,452.879 465.935,450.219 465.794,448.479C465.335,442.801 468.578,443.877 469.249,445.571C469.306,445.715 469.26,445.714 469.399,447.5ZM448.601,447.504C449.017,444.494 448.873,442.864 451.677,444.176C453.201,444.889 452.749,449.388 452.723,449.539C452.658,449.901 449.109,455.581 448.601,447.504ZM557.502,462.713C601.135,462.543 603.507,463.538 602.391,461.576C600.304,457.903 591.314,464.594 586.455,455.528C584.858,452.548 573.416,453.73 572.871,454.716C568.323,462.934 569.602,447.436 569.559,441.498C569.536,438.414 568.581,438.615 555.356,431.792C552.222,430.175 551.587,431.59 539.65,437.797C535.36,440.028 538.963,444.077 536.444,445.231C536.072,445.401 535.31,445.534 534.619,440.462C534.454,439.257 534.044,438.688 519.465,439.156C516.412,439.254 517.479,448.152 517.485,448.501C517.552,452.431 519.499,450.552 523.493,450.653C531.698,450.862 529.536,455.27 532.617,456.192C536.08,457.229 536.521,456.97 537.971,460.299C539.393,463.563 542.289,462.742 557.502,462.713ZM550.54,448.498C550.745,442.401 553.184,444.264 553.489,444.517C556.403,446.932 552.118,455.832 550.54,448.498ZM527.205,446.494C526.847,446.708 526.881,447.328 526.524,447.542C524.443,448.791 524.347,443.756 526.595,445.379C526.939,445.627 526.861,446.246 527.205,446.494ZM303.848,380.402C300.683,367.813 300.091,365.87 299.494,367.494C297.733,372.286 295.757,382.206 295.499,383.5C295.371,384.142 295.285,385.782 303.577,384.76C306.426,384.409 304.595,383.17 303.848,380.402ZM490.5,462.705C532.759,462.701 535.897,463.738 534.528,460.487C533.742,458.62 529.364,460.517 527.907,457.333C525.397,451.846 523.477,454.471 516.526,454.03C508.208,453.502 505.182,452.628 499.437,454.256C497.624,454.77 486.318,451.269 485.873,455.556C485.822,456.053 485.327,460.822 486.017,461.796C486.914,463.063 487.205,462.491 490.5,462.705Z" style="fill:#f3edde;"/>
                </g>
                <g transform="matrix(3.996152,0,0,3.996152,-145.579488,-208.32364)">
                    <path d="M249.515,282.782C255.854,283.05 255.583,284.025 258.49,284.602C260.856,285.071 263.068,271.282 279.529,269.761C299.759,267.891 304.467,286.468 305.418,286.729C310.308,288.069 313.392,281.705 322.66,293.377C325.063,296.404 333.288,292.258 337.307,297.649C340.969,302.563 343.56,300.109 346.083,305.683C348.774,311.629 328.654,309.723 324.507,310.531C310.481,313.264 310.399,313.338 296.464,310.653C290.742,309.551 283.716,314.635 269.447,310.697C257.43,307.38 254.764,316.455 234.485,310.557C231.841,309.788 197.678,313.218 206.826,305.979C210.154,303.346 208.854,301.661 212.568,300.782C215.979,299.974 215.784,299.629 217.988,296.936C223.318,290.426 233.154,296.237 235.091,292.333C239.458,283.531 244.593,283.718 249.515,282.782ZM315.528,308.889C319.717,308.431 319.473,307.688 323.557,306.888C324.887,306.628 324.926,307.726 340.493,306.484C344.688,306.15 336.394,302.933 335.879,302.252C331.336,296.231 330.051,298.183 322.497,299.095C318.928,299.526 321.519,292.873 312.591,290.114C306.876,288.348 295.173,296.439 299.778,290.714C305.424,283.694 289.376,268.523 274.56,274.666C259.722,280.818 265.234,293.178 258.708,289.17C245.343,280.962 238.449,292.975 237.867,294.667C236.582,298.394 236.075,299.062 232.36,297.883C231.386,297.574 223.401,295.039 219.903,300.719C216.835,305.701 211.075,302.612 211.49,306.504C211.652,308.015 234.593,306.453 235.451,306.712C254.5,312.461 260.423,303.964 266.642,306.132C285.905,312.847 289.695,305.905 295.445,306.883C305.482,308.591 305.411,308.658 315.528,308.889Z" style="fill:#f3edde;"/>
                </g>
                <g transform="matrix(3.996152,0,0,3.996152,-145.579488,-208.32364)">
                    <path d="M703.567,308.855C707.069,308.559 707.008,308.811 710.487,308.961C712.671,309.056 713.606,305.809 714.613,304.592C721.858,295.833 731.813,302.973 733.275,300.382C744.637,280.254 765.732,291.126 770.035,300.718C772.766,306.809 778.29,298.943 785.193,307.737C789.921,313.76 793.692,307.169 799.126,312.867C803.332,317.277 804.931,314.304 809.446,317.582C819.901,325.173 791.756,323.721 790.532,323.765C788.342,323.843 786.563,327.061 768.475,324.7C762.367,323.903 762.419,322.655 756.404,324.117C747.443,326.296 746.196,322.316 737.436,324.09C723.027,327.007 715.109,323.081 713.477,323.193C707.418,323.609 707.503,323.647 701.505,323.287C701.375,323.28 689.478,323.914 691.729,319.641C693.498,316.284 692.027,315.127 695.498,313.496C699.746,311.499 699.156,310.57 703.567,308.855ZM773.538,322.055C783.137,322.328 783.465,322.668 788.551,320.643C790.993,319.671 809.192,321.721 805.168,318.884C801.986,316.64 800.643,319.536 797.042,315.898C791.656,310.457 786.077,316.639 783.761,312.375C776.804,299.568 770.156,311.099 767.954,307.226C767.381,306.218 768.255,299.698 759.397,294.705C757.091,293.405 740.415,288.103 735.485,304.495C733.866,309.88 724.6,297.023 716.788,307.7C715.283,309.757 715.624,314.376 711.659,313.085C702.697,310.166 703.225,313.886 700.563,315.573C699.514,316.238 695.765,316.237 695.907,318.538C696.136,322.251 711.143,318.532 718.417,320.739C728.391,323.765 737.045,318.354 744.467,320.605C746.524,321.228 750.927,321.848 754.447,321.153C763.944,319.278 763.945,320.747 773.538,322.055Z" style="fill:#f3edde;"/>
                </g>
                <g transform="matrix(3.996152,0,0,3.996152,-145.579488,-208.32364)">
                    <path d="M649.35,321.834C690.076,340.08 689.857,349.033 735.51,365.467C768.19,377.231 766.608,381.599 830.376,399.928C836.356,401.646 879.564,416.058 907.433,423.698C907.994,423.852 914.481,425.631 914.152,426.467C913.762,427.461 913.177,427.566 887.593,421.101C883.058,419.955 804.363,397.148 780.397,387.758C774.781,385.557 732.118,368.84 710.531,359.426C695.819,353.009 670.159,334.743 648.514,325.466C596.396,303.127 580.094,268.535 558.63,275.933C549.803,278.976 549.777,279.881 540.579,278.182C529.288,276.097 527.468,287.297 507.616,282.037C486.147,276.349 484.629,277.037 464.2,292.086C399.81,339.519 310.637,372.425 310.595,367.504C310.569,364.386 325.294,364.16 382.367,336.217C477.011,289.88 471.893,267.188 503.425,276.786C516.971,280.909 517.44,280.851 530.616,275.827C541.621,271.63 544.591,277.993 551.342,275.134C577.506,264.051 576.938,276.873 625.185,308.95C637.286,316.995 643.948,319.568 649.35,321.834Z" style="fill:#f3edde;"/>
                </g>
                <g transform="matrix(3.996152,0,0,3.996152,-145.579488,-208.32364)">
                    <path d="M338.588,443.5C338.712,441.72 338.657,441.718 338.722,441.578C339.755,439.343 343.053,439.712 342.262,445.463C342.217,445.793 339.268,450.443 338.588,443.5ZM371.317,443.498C371.506,441.655 371.474,441.661 371.521,441.508C372.27,439.11 375.626,440.063 374.757,445.546C374.707,445.862 371.88,450.049 371.317,443.498ZM354.173,444.505C354.28,441.699 353.916,441.674 354.649,440.6C357.691,436.145 360.629,445.277 358.385,447.393C354.766,450.805 354.211,444.912 354.173,444.505Z" style="fill:#f3edde;"/>
                </g>
                <g transform="matrix(3.996152,0,0,3.996152,-145.579488,-208.32364)">
                    <path d="M283.335,443.491C283.816,441.604 283.64,440.773 285.575,441.295C287.035,441.689 286.63,445.172 286.59,445.517C286.555,445.822 283.892,449.62 283.335,443.491ZM301.429,443.5C301.007,450.618 297.796,446.796 297.696,446.429C297.286,444.918 297.389,441.276 298.627,440.807C301.026,439.897 301.094,440.955 301.429,443.5ZM301.513,422.501C300.297,427.618 298.269,423.801 298.226,422.509C298.001,415.852 301.155,418.218 301.309,418.586C301.43,418.875 301.324,418.876 301.513,422.501ZM311.098,444.496C311.399,441.992 311.065,440.585 313.489,441.528C314.877,442.067 314.48,445.168 314.439,445.492C314.404,445.768 311.97,451.17 311.098,444.496Z" style="fill:#f3edde;"/>
                </g>
                <g transform="matrix(3.996152,0,0,3.996152,-145.579488,-208.32364)">
                    <path d="M448.601,447.504C449.017,444.494 448.873,442.864 451.677,444.176C453.201,444.889 452.749,449.388 452.723,449.539C452.658,449.901 449.109,455.581 448.601,447.504ZM469.399,447.5C469.005,452.879 465.935,450.219 465.794,448.479C465.335,442.801 468.578,443.877 469.249,445.571C469.306,445.715 469.26,445.714 469.399,447.5ZM432.618,447.5C432.64,447.188 432.86,444.038 434.517,444.081C436.724,444.138 436.195,448.097 436.146,448.468C435.92,450.157 432.925,452.748 432.618,447.5Z" style="fill:#f3edde;"/>
                </g>
                <g transform="matrix(3.996152,0,0,3.996152,-145.579488,-208.32364)">
                    <path d="M527.205,446.494C526.847,446.708 526.881,447.328 526.524,447.542C524.443,448.791 524.347,443.756 526.595,445.379C526.939,445.627 526.861,446.246 527.205,446.494ZM550.54,448.498C550.745,442.401 553.184,444.264 553.489,444.517C556.403,446.932 552.118,455.832 550.54,448.498Z" style="fill:#f3edde;"/>
                </g>
                <g transform="matrix(3.996152,0,0,3.996152,-145.579488,-208.32364)">
                    <path d="M405.45,434.5C404.709,441.854 401.601,436.837 401.563,436.489C400.921,430.655 402.206,430.111 402.698,429.902C405.235,428.827 405.434,434.072 405.45,434.5Z" style="fill:#f3edde;"/>
                </g>
                <g transform="matrix(3.996152,0,0,3.996152,-145.579488,-208.32364)">
                    <path d="M497.591,432.505C498.902,423.855 503.482,434.913 500.58,437.6C497.766,440.208 497.602,432.978 497.591,432.505Z" style="fill:#f3edde;"/>
                </g>
                <g transform="matrix(3.996152,0,0,3.996152,-145.579488,-208.32364)">
                    <path d="M640.415,357.637C654.615,365.4 681.08,383.77 742.329,402.993C746.442,404.283 743.743,405.591 743.514,405.601C741.993,405.665 702.607,393.541 692.636,389.166C672.748,380.439 672.891,380.27 628.66,355.231C620.405,350.557 594.105,328.455 602.563,331.334C605.418,332.306 612.287,342.304 640.415,357.637Z" style="fill:#f3edde;"/>
                </g>
                <g transform="matrix(3.996152,0,0,3.996152,-145.579488,-208.32364)">
                    <path d="M264.614,379.912C282.588,375.297 285.044,374.279 283.925,376.622C282.814,378.951 257.907,385.288 255.596,385.875C236.732,390.674 153.483,417.624 151.519,416.461C149.218,415.099 156.148,413.039 156.625,412.897C188.997,403.271 217.318,391.833 264.614,379.912Z" style="fill:#f3edde;"/>
                </g>
                <g transform="matrix(3.996152,0,0,3.996152,-145.579488,-208.32364)">
                    <path d="M414.443,344.406C428.58,337.122 437.865,333.929 455.408,322.361C474.752,309.606 487.579,297.116 490.419,295.304C492.154,294.197 492.889,295.869 491.353,297.38C472.175,316.247 454.227,327.61 450.712,329.835C432.702,341.237 390.403,358.962 389.377,358.801C384.249,357.996 399.193,352.825 414.443,344.406Z" style="fill:#f3edde;"/>
                </g>
                <g transform="matrix(3.996152,0,0,3.996152,-145.579488,-208.32364)">
                    <path d="M582.373,366.694C580.214,365.248 566.148,355.828 558.92,344.22C554.063,336.419 544.807,314.151 544.734,313.489C543.596,303.154 556.346,333.464 563.947,345.183C575.104,362.384 624.941,387.183 625.368,387.622C629.061,391.418 622.67,388.712 622.442,388.616C601.354,379.689 602.073,378.394 582.373,366.694Z" style="fill:#f3edde;"/>
                </g>
                <g transform="matrix(3.996152,0,0,3.996152,-145.579488,-208.32364)">
                    <path d="M339.508,481.928C316.14,482.745 259.709,482.057 258.691,481.252C254.559,477.981 260.985,478.38 324.5,478.444C332.177,478.452 363.029,478.937 363.428,478.984C365.337,479.206 365.413,481.241 363.47,481.355C357.507,481.703 341.425,481.904 339.508,481.928Z" style="fill:#f3edde;"/>
                </g>
                <g transform="matrix(3.996152,0,0,3.996152,-145.579488,-208.32364)">
                    <path d="M466.495,482.082C431.934,482.535 399.022,481.627 398.586,481.346C394.228,478.538 400.513,479.116 438.499,478.422C439.644,478.401 497.281,478.099 498.054,479.735C499.136,482.024 496.888,481.603 466.495,482.082Z" style="fill:#f3edde;"/>
                </g>
                <g transform="matrix(3.996152,0,0,3.996152,-145.579488,-208.32364)">
                    <path d="M584.498,481.936C561.296,481.57 555.793,481.684 554.594,481.249C554.37,481.167 551.944,478.997 556.519,478.959C588.12,478.699 610.032,478.313 620.5,478.494C651.66,479.034 653.661,477.842 653.178,480.416C652.717,482.871 589.993,482.011 584.498,481.936Z" style="fill:#f3edde;"/>
                </g>
                <g transform="matrix(3.996152,0,0,3.996152,-145.579488,-208.32364)">
                    <path d="M490.502,492.899C523.333,492.269 529.327,492.358 544.5,492.663C559.39,492.962 570.032,492.733 567.269,495.217C566.332,496.06 519.073,496.382 502.507,496.099C478.167,495.683 477.881,495.198 477.865,494.487C477.821,492.551 488.033,492.957 490.502,492.899Z" style="fill:#f3edde;"/>
                </g>
                <g transform="matrix(3.996152,0,0,3.996152,-145.579488,-208.32364)">
                    <path d="M732.501,477.412C700.097,476.723 697.052,477.048 698.904,474.874C700.04,473.541 786.243,473.858 788.513,474.47C800.846,477.794 745.635,477.655 732.501,477.412Z" style="fill:#f3edde;"/>
                </g>
                <g transform="matrix(3.996152,0,0,3.996152,-145.579488,-208.32364)">
                    <path d="M297.922,397.52C299.803,388.284 303.664,400.007 301.315,402.306C298.06,405.491 297.93,397.989 297.922,397.52Z" style="fill:#f3edde;"/>
                </g>
                <g transform="matrix(3.996152,0,0,3.996152,-145.579488,-208.32364)">
                    <path d="M355.493,492.936C363.21,492.843 419.322,491.326 419.277,494.477C419.262,495.521 418.674,495.608 392.489,496.064C380.8,496.268 341.364,495.928 340.622,495.336C336.95,492.409 353.714,492.968 355.493,492.936Z" style="fill:#f3edde;"/>
                </g>
                <g transform="matrix(3.996152,0,0,3.996152,-145.579488,-208.32364)">
                    <path d="M493.34,335.322C517.829,314.559 518.475,304.077 522.532,301.564C527.967,298.197 516.634,316.664 510.242,324.291C500.676,335.704 478.745,350.432 478.498,350.454C474.136,350.831 478.816,348.439 493.34,335.322Z" style="fill:#f3edde;"/>
                </g>
                <g transform="matrix(3.996152,0,0,3.996152,-145.579488,-208.32364)">
                    <path d="M204.498,472.399C241.633,472.286 247.915,473.295 244.388,475.254C243.86,475.547 181.855,475.643 180.732,475.088C174.528,472.021 196.684,472.452 204.498,472.399Z" style="fill:#f3edde;"/>
                </g>
                <g transform="matrix(3.996152,0,0,3.996152,-145.579488,-208.32364)">
                    <path d="M468.501,417.334C472.916,412.821 485.632,408.968 486.548,409.341C487.514,409.734 498.009,414.003 498.586,414.339C501.168,415.847 501.234,415.615 503.497,417.669C479.671,417.31 479.72,417.996 468.501,417.334Z" style="fill:#f3edde;"/>
                </g>
                <g transform="matrix(3.996152,0,0,3.996152,-145.579488,-208.32364)">
                    <path d="M520.5,477.499C519.607,477.519 503.329,477.883 509.659,474.837C509.687,474.824 509.679,474.442 534.498,474.551C534.753,474.553 538.278,474.568 537.151,476.32C536.393,477.5 531.584,477.261 520.5,477.499Z" style="fill:#f3edde;"/>
                </g>
                <g transform="matrix(3.996152,0,0,3.996152,-145.579488,-208.32364)">
                    <path d="M354.173,444.505C354.28,441.699 353.916,441.674 354.649,440.6C357.691,436.145 360.629,445.277 358.385,447.393C354.766,450.805 354.211,444.912 354.173,444.505Z" style="fill:#f3edde;"/>
                </g>
                <g transform="matrix(3.996152,0,0,3.996152,-145.579488,-208.32364)">
                    <path d="M405.45,434.5C404.709,441.854 401.601,436.837 401.563,436.489C400.921,430.655 402.206,430.111 402.698,429.902C405.235,428.827 405.434,434.072 405.45,434.5Z" style="fill:#f3edde;"/>
                </g>
                <g transform="matrix(3.996152,0,0,3.996152,-145.579488,-208.32364)">
                    <path d="M297.922,397.52C299.803,388.284 303.664,400.007 301.315,402.306C298.06,405.491 297.93,397.989 297.922,397.52Z" style="fill:#f3edde;"/>
                </g>
                <g transform="matrix(3.996152,0,0,3.996152,-145.579488,-208.32364)">
                    <path d="M497.591,432.505C498.902,423.855 503.482,434.913 500.58,437.6C497.766,440.208 497.602,432.978 497.591,432.505Z" style="fill:#f3edde;"/>
                </g>
                <g transform="matrix(3.996152,0,0,3.996152,-145.579488,-208.32364)">
                    <path d="M448.601,447.504C449.017,444.494 448.873,442.864 451.677,444.176C453.201,444.889 452.749,449.388 452.723,449.539C452.658,449.901 449.109,455.581 448.601,447.504Z" style="fill:#f3edde;"/>
                </g>
                <g transform="matrix(3.996152,0,0,3.996152,-145.579488,-208.32364)">
                    <path d="M301.429,443.5C301.007,450.618 297.796,446.796 297.696,446.429C297.286,444.918 297.389,441.276 298.627,440.807C301.026,439.897 301.094,440.955 301.429,443.5Z" style="fill:#f3edde;"/>
                </g>
                <g transform="matrix(3.996152,0,0,3.996152,-145.579488,-208.32364)">
                    <path d="M550.54,448.498C550.745,442.401 553.184,444.264 553.489,444.517C556.403,446.932 552.118,455.832 550.54,448.498Z" style="fill:#f3edde;"/>
                </g>
                <g transform="matrix(3.996152,0,0,3.996152,-145.579488,-208.32364)">
                    <path d="M338.588,443.5C338.712,441.72 338.657,441.718 338.722,441.578C339.755,439.343 343.053,439.712 342.262,445.463C342.217,445.793 339.268,450.443 338.588,443.5Z" style="fill:#f3edde;"/>
                </g>
                <g transform="matrix(3.996152,0,0,3.996152,-145.579488,-208.32364)">
                    <path d="M371.317,443.498C371.506,441.655 371.474,441.661 371.521,441.508C372.27,439.11 375.626,440.063 374.757,445.546C374.707,445.862 371.88,450.049 371.317,443.498Z" style="fill:#f3edde;"/>
                </g>
                <g transform="matrix(3.996152,0,0,3.996152,-145.579488,-208.32364)">
                    <path d="M301.513,422.501C300.297,427.618 298.269,423.801 298.226,422.509C298.001,415.852 301.155,418.218 301.309,418.586C301.43,418.875 301.324,418.876 301.513,422.501Z" style="fill:#f3edde;"/>
                </g>
                <g transform="matrix(3.996152,0,0,3.996152,-145.579488,-208.32364)">
                    <path d="M469.399,447.5C469.005,452.879 465.935,450.219 465.794,448.479C465.335,442.801 468.578,443.877 469.249,445.571C469.306,445.715 469.26,445.714 469.399,447.5Z" style="fill:#f3edde;"/>
                </g>
                <g transform="matrix(3.996152,0,0,3.996152,-145.579488,-208.32364)">
                    <path d="M432.618,447.5C432.64,447.188 432.86,444.038 434.517,444.081C436.724,444.138 436.195,448.097 436.146,448.468C435.92,450.157 432.925,452.748 432.618,447.5Z" style="fill:#f3edde;"/>
                </g>
                <g transform="matrix(3.996152,0,0,3.996152,-145.579488,-208.32364)">
                    <path d="M225.099,428.48C225.469,426.113 225.196,424.881 227.414,425.709C228.488,426.111 228.731,429.057 228.43,430.484C228.366,430.789 225.971,434.385 225.099,428.48Z" style="fill:#f3edde;"/>
                </g>
                <g transform="matrix(3.996152,0,0,3.996152,-145.579488,-208.32364)">
                    <path d="M311.098,444.496C311.399,441.992 311.065,440.585 313.489,441.528C314.877,442.067 314.48,445.168 314.439,445.492C314.404,445.768 311.97,451.17 311.098,444.496Z" style="fill:#f3edde;"/>
                </g>
                <g transform="matrix(3.996152,0,0,3.996152,-145.579488,-208.32364)">
                    <path d="M283.335,443.491C283.816,441.604 283.64,440.773 285.575,441.295C287.035,441.689 286.63,445.172 286.59,445.517C286.555,445.822 283.892,449.62 283.335,443.491Z" style="fill:#f3edde;"/>
                </g>
                <g transform="matrix(3.996152,0,0,3.996152,-145.579488,-208.32364)">
                    <path d="M239.692,429.52C237.732,436.525 234.698,427.155 237.249,426.03C239.966,424.831 239.626,426.553 239.692,429.52Z" style="fill:#f3edde;"/>
                </g>
                <g transform="matrix(3.996152,0,0,3.996152,-145.579488,-208.32364)">
                    <path d="M247.375,429.506C247.706,426.697 247.122,424.875 249.749,426.028C252.331,427.162 249.056,436.795 247.375,429.506Z" style="fill:#f3edde;"/>
                </g>
                <g transform="matrix(3.996152,0,0,3.996152,-145.579488,-208.32364)">
                    <path d="M627.936,455.463C626.624,461.032 623.104,455.584 624.894,453.943C626.605,452.375 627.828,455.213 627.936,455.463Z" style="fill:#f3edde;"/>
                </g>
                <g transform="matrix(3.996152,0,0,3.996152,-145.579488,-208.32364)">
                    <path d="M635.472,455.498C636.251,453.512 636.506,452.555 638.207,453.883C640.237,455.468 636.574,460.473 635.472,455.498Z" style="fill:#f3edde;"/>
                </g>
                <g transform="matrix(3.996152,0,0,3.996152,-145.579488,-208.32364)">
                    <path d="M612.919,455.54C615.705,450.369 616.213,456.281 616.163,456.428C615.248,459.117 613.671,458.273 612.919,455.54Z" style="fill:#f3edde;"/>
                </g>
                <g transform="matrix(3.996152,0,0,3.996152,-145.579488,-208.32364)">
                    <path d="M527.205,446.494C526.847,446.708 526.881,447.328 526.524,447.542C524.443,448.791 524.347,443.756 526.595,445.379C526.939,445.627 526.861,446.246 527.205,446.494Z" style="fill:#f3edde;"/>
                </g>
            </g>
            <g transform="matrix(1,0,0,1,-26.484485,-21.711819)">
                <g transform="matrix(1,0,0,1,135,-18)">
                    <g transform="matrix(2.042001,0,0,2.918495,-793.255797,-2184.292625)">
                        <path d="M568.491,1524.375C539.691,1521.175 517.291,1514.908 501.291,1505.575C487.158,1496.775 480.091,1486.241 480.091,1473.975C480.091,1451.308 500.091,1429.841 540.091,1409.575C561.958,1398.641 586.358,1389.908 613.291,1383.375C640.225,1376.841 669.825,1372.641 702.091,1370.775C712.225,1370.241 722.291,1369.841 732.291,1369.575C742.291,1369.308 752.225,1369.175 762.091,1369.175C787.425,1369.175 810.425,1370.041 831.091,1371.775C851.758,1373.508 870.225,1376.108 886.491,1379.575C921.425,1387.308 938.891,1397.975 938.891,1411.575C938.891,1415.041 937.691,1418.775 935.291,1422.775C931.291,1428.908 927.958,1431.975 925.291,1431.975C924.491,1431.975 924.091,1431.575 924.091,1430.775C924.091,1429.708 925.158,1426.775 927.291,1421.975C928.358,1420.108 928.891,1418.375 928.891,1416.775C928.891,1405.041 907.025,1396.108 863.291,1389.975C847.025,1387.841 828.758,1386.241 808.491,1385.175C788.225,1384.108 765.958,1383.575 741.691,1383.575C734.758,1383.575 728.025,1383.641 721.491,1383.775C714.958,1383.908 708.758,1384.108 702.891,1384.375C648.491,1386.508 600.891,1397.841 560.091,1418.375C520.891,1437.841 501.291,1458.108 501.291,1479.175C501.291,1501.041 525.025,1514.508 572.491,1519.575C575.958,1519.841 577.691,1520.641 577.691,1521.975C577.691,1524.375 574.625,1525.175 568.491,1524.375ZM582.891,1646.775C571.958,1646.775 563.691,1642.375 558.091,1633.575C555.958,1630.108 554.891,1627.308 554.891,1625.175C554.891,1623.041 555.825,1621.975 557.691,1621.975C559.291,1621.975 563.158,1625.041 569.291,1631.175C575.691,1637.575 582.091,1640.775 588.491,1640.775C599.691,1640.775 612.358,1631.308 626.491,1612.375C639.558,1594.775 658.091,1562.241 682.091,1514.775C695.425,1488.108 706.091,1467.508 714.091,1452.975C722.091,1438.441 727.158,1429.841 729.291,1427.175C733.025,1423.175 736.758,1421.175 740.491,1421.175C743.691,1421.175 749.291,1423.041 757.291,1426.775C758.625,1427.575 759.291,1428.508 759.291,1429.575C759.291,1431.175 758.358,1432.641 756.491,1433.975C754.625,1435.308 753.025,1435.841 751.691,1435.575C746.091,1434.775 727.958,1463.975 697.291,1523.175C687.958,1541.308 678.891,1557.708 670.091,1572.375C661.291,1587.041 652.891,1599.841 644.891,1610.775C638.225,1620.108 628.758,1628.508 616.491,1635.975C604.491,1643.175 593.291,1646.775 582.891,1646.775Z" style="fill:#f3edde;fill-rule:nonzero;"/>
                    </g>
                    <g transform="matrix(2.042001,0,0,2.042001,-870.255797,-876.941094)">
                        <path d="M852.491,1619.175C845.558,1617.575 839.025,1613.841 832.891,1607.975C831.558,1606.641 830.891,1604.641 830.891,1601.975C830.891,1591.308 835.691,1576.375 845.291,1557.175C837.825,1566.775 831.691,1574.641 826.891,1580.775C822.091,1586.908 818.491,1591.308 816.091,1593.975C805.691,1605.975 797.025,1613.175 790.091,1615.575C787.691,1616.375 785.291,1616.775 782.891,1616.775C773.025,1616.775 767.291,1612.775 765.691,1604.775C764.625,1602.375 764.091,1599.041 764.091,1594.775C764.091,1581.708 772.758,1556.775 790.091,1519.975C794.091,1511.441 798.625,1507.175 803.691,1507.175C807.425,1507.175 811.025,1509.975 814.491,1515.575L797.691,1548.775C791.825,1560.241 787.358,1570.108 784.291,1578.375C781.225,1586.641 779.691,1593.041 779.691,1597.575C779.691,1603.975 781.825,1607.175 786.091,1607.175C793.025,1607.175 804.225,1598.241 819.691,1580.375C827.958,1570.775 836.025,1560.108 843.891,1548.375C851.758,1536.641 859.558,1523.841 867.291,1509.975C868.891,1506.775 871.291,1505.175 874.491,1505.175C877.158,1505.175 879.758,1506.308 882.291,1508.575C884.825,1510.841 885.825,1512.508 885.291,1513.575C859.425,1567.175 846.491,1597.975 846.491,1605.975C846.491,1609.175 847.558,1610.508 849.691,1609.975C871.291,1608.108 894.491,1589.041 919.291,1552.775C920.625,1550.375 922.091,1549.041 923.691,1548.775C925.291,1548.241 926.091,1548.775 926.091,1550.375C926.091,1551.441 925.558,1552.908 924.491,1554.775C912.758,1573.175 898.758,1589.308 882.491,1603.175C868.091,1615.175 858.091,1620.508 852.491,1619.175Z" style="fill:#f3edde;fill-rule:nonzero;"/>
                    </g>
                    <g transform="matrix(2.042001,0,0,2.042001,-870.255797,-876.941094)">
                        <path d="M940.091,1623.175C919.558,1618.641 909.291,1609.308 909.291,1595.175C909.291,1591.175 909.958,1586.441 911.291,1580.975C912.625,1575.508 914.758,1569.441 917.691,1562.775L951.691,1486.375C947.691,1486.908 943.291,1487.441 938.491,1487.975C933.691,1488.508 928.358,1489.041 922.491,1489.575C921.425,1489.575 920.891,1488.641 920.891,1486.775C920.891,1483.041 921.558,1480.908 922.891,1480.375L956.491,1475.575L982.491,1422.775C984.891,1417.975 992.358,1415.575 1004.891,1415.575C1010.758,1415.575 1013.291,1416.241 1012.491,1417.575C1006.625,1426.908 1000.691,1436.308 994.691,1445.775C988.691,1455.241 982.758,1464.641 976.891,1473.975C977.691,1473.708 979.425,1473.441 982.091,1473.175C984.758,1472.908 988.225,1472.641 992.491,1472.375C995.691,1472.108 998.758,1471.908 1001.691,1471.775C1004.625,1471.641 1007.425,1471.575 1010.091,1471.575C1021.291,1471.575 1026.625,1472.108 1026.091,1473.175C1024.225,1475.041 1006.091,1478.641 971.691,1483.975C942.625,1538.908 928.091,1577.708 928.091,1600.375C928.091,1608.641 930.491,1613.575 935.291,1615.175C939.025,1616.241 948.491,1611.308 963.691,1600.375C972.491,1593.975 980.491,1586.975 987.691,1579.375C994.891,1571.775 1001.425,1563.708 1007.291,1555.175C1009.158,1552.508 1010.891,1551.175 1012.491,1551.175C1013.558,1551.175 1014.091,1551.708 1014.091,1552.775C1014.091,1553.841 1013.425,1555.441 1012.091,1557.575C1001.958,1573.841 988.491,1589.175 971.691,1603.575C955.425,1617.708 944.891,1624.241 940.091,1623.175Z" style="fill:#f3edde;fill-rule:nonzero;"/>
                    </g>
                    <g transform="matrix(2.042001,0,0,2.042001,-870.255797,-876.941094)">
                        <path d="M1030.091,1623.175C1009.558,1618.641 999.291,1609.308 999.291,1595.175C999.291,1591.175 999.958,1586.441 1001.291,1580.975C1002.625,1575.508 1004.758,1569.441 1007.691,1562.775L1041.691,1486.375C1037.691,1486.908 1033.291,1487.441 1028.491,1487.975C1023.691,1488.508 1018.358,1489.041 1012.491,1489.575C1011.425,1489.575 1010.891,1488.641 1010.891,1486.775C1010.891,1483.041 1011.558,1480.908 1012.891,1480.375L1046.491,1475.575L1072.491,1422.775C1074.891,1417.975 1082.358,1415.575 1094.891,1415.575C1100.758,1415.575 1103.291,1416.241 1102.491,1417.575C1096.625,1426.908 1090.691,1436.308 1084.691,1445.775C1078.691,1455.241 1072.758,1464.641 1066.891,1473.975C1067.691,1473.708 1069.425,1473.441 1072.091,1473.175C1074.758,1472.908 1078.225,1472.641 1082.491,1472.375C1085.691,1472.108 1088.758,1471.908 1091.691,1471.775C1094.625,1471.641 1097.425,1471.575 1100.091,1471.575C1111.291,1471.575 1116.625,1472.108 1116.091,1473.175C1114.225,1475.041 1096.091,1478.641 1061.691,1483.975C1032.625,1538.908 1018.091,1577.708 1018.091,1600.375C1018.091,1608.641 1020.491,1613.575 1025.291,1615.175C1029.025,1616.241 1038.491,1611.308 1053.691,1600.375C1062.491,1593.975 1070.491,1586.975 1077.691,1579.375C1084.891,1571.775 1091.425,1563.708 1097.291,1555.175C1099.158,1552.508 1100.891,1551.175 1102.491,1551.175C1103.558,1551.175 1104.091,1551.708 1104.091,1552.775C1104.091,1553.841 1103.425,1555.441 1102.091,1557.575C1091.958,1573.841 1078.491,1589.175 1061.691,1603.575C1045.425,1617.708 1034.891,1624.241 1030.091,1623.175Z" style="fill:#f3edde;fill-rule:nonzero;"/>
                    </g>
                    <g transform="matrix(2.042001,0,0,2.042001,-870.255797,-876.941094)">
                        <path d="M1118.491,1620.775C1099.025,1620.775 1089.291,1608.775 1089.291,1584.775C1089.291,1560.775 1098.891,1537.841 1118.091,1515.975C1118.358,1515.708 1118.225,1514.708 1117.691,1512.975C1117.158,1511.241 1116.891,1509.975 1116.891,1509.175C1116.891,1507.575 1117.425,1506.375 1118.491,1505.575C1127.825,1498.108 1138.758,1494.375 1151.291,1494.375C1154.758,1494.375 1157.558,1495.041 1159.691,1496.375C1162.358,1497.441 1164.891,1498.508 1167.291,1499.575C1169.691,1500.641 1171.958,1501.841 1174.091,1503.175C1184.225,1509.308 1191.291,1515.708 1195.291,1522.375C1201.958,1522.108 1207.558,1521.841 1212.091,1521.575C1216.625,1521.308 1220.091,1521.041 1222.491,1520.775L1224.091,1520.775C1226.491,1520.775 1227.691,1521.708 1227.691,1523.575C1227.691,1524.108 1227.158,1524.508 1226.091,1524.775C1223.158,1525.308 1219.358,1525.975 1214.691,1526.775C1210.025,1527.575 1204.358,1528.375 1197.691,1529.175C1198.491,1531.041 1198.891,1533.175 1198.891,1535.575C1198.891,1537.441 1198.758,1538.775 1198.491,1539.575C1194.491,1561.175 1183.958,1580.108 1166.891,1596.375C1150.358,1612.641 1134.225,1620.775 1118.491,1620.775ZM1185.691,1522.375C1181.425,1515.708 1173.025,1512.375 1160.491,1512.375C1150.891,1512.375 1144.625,1513.441 1141.691,1515.575C1140.891,1515.841 1140.091,1516.375 1139.291,1517.175C1138.491,1517.975 1137.558,1518.908 1136.491,1519.975C1151.425,1521.841 1167.825,1522.641 1185.691,1522.375ZM1119.691,1614.375C1131.425,1614.375 1144.891,1605.975 1160.091,1589.175C1175.558,1572.375 1184.758,1556.108 1187.691,1540.375C1187.958,1539.041 1188.158,1537.908 1188.291,1536.975C1188.425,1536.041 1188.491,1535.175 1188.491,1534.375C1188.491,1532.775 1188.225,1531.175 1187.691,1529.575C1182.625,1529.841 1177.425,1529.975 1172.091,1529.975L1141.491,1529.975C1137.091,1529.975 1133.158,1529.841 1129.691,1529.575C1119.025,1543.975 1112.358,1555.575 1109.691,1564.375C1106.491,1574.241 1104.891,1583.708 1104.891,1592.775C1104.891,1607.175 1109.825,1614.375 1119.691,1614.375Z" style="fill:#f3edde;fill-rule:nonzero;"/>
                    </g>
                </g>
                <g transform="matrix(1,0,0,1,-58,-37.921221)">
                    <g transform="matrix(1.677615,0.124245,-0.201011,2.714134,1429.65196,-1967.777788)">
                        <path d="M770.24,1673.787C767.051,1673.787 764.526,1673.256 762.665,1672.193C751.767,1666.611 746.318,1654.916 746.318,1637.107C746.318,1613.717 754.425,1578.897 770.639,1532.648C777.55,1513.776 784.394,1494.772 791.172,1475.634C797.95,1456.496 804.794,1437.359 811.705,1418.221C811.971,1417.158 812.17,1416.228 812.303,1415.43C812.436,1414.633 812.502,1413.836 812.502,1413.038C812.502,1407.456 809.712,1404.666 804.13,1404.666C798.016,1404.666 789.245,1407.589 777.816,1413.437C752.565,1425.93 725.187,1447.858 695.684,1479.222C659.269,1517.763 626.974,1563.747 598.8,1617.172C599.331,1618.501 600.926,1619.764 603.584,1620.96C606.242,1622.156 606.907,1623.286 605.578,1624.349C605.578,1627.804 599.996,1629.532 588.832,1629.532C578.998,1629.532 574.08,1628.07 574.08,1625.146C574.08,1617.438 577.004,1605.411 582.852,1589.064C588.699,1572.717 597.869,1552.051 610.362,1527.066L648.238,1451.313C655.947,1436.429 661.462,1423.537 664.784,1412.64C668.107,1401.742 669.768,1393.103 669.768,1386.724C669.768,1372.637 658.073,1365.593 634.683,1365.593C614.216,1365.593 585.377,1374.364 548.165,1391.907C527.167,1402.008 508.96,1415.563 493.543,1432.574C476.532,1450.649 468.026,1467.394 468.026,1482.811C468.026,1492.645 471.947,1500.818 479.788,1507.331C487.629,1513.843 497.53,1517.099 509.491,1517.099C514.01,1517.099 518.395,1516.7 522.648,1515.903L528.23,1515.105C512.016,1521.219 500.72,1524.275 494.341,1524.275C486.367,1524.275 478.791,1522.946 471.615,1520.288C457.793,1515.238 450.882,1504.739 450.882,1488.791C450.882,1476.564 454.604,1464.205 462.046,1451.712C468.425,1440.548 480.386,1427.923 497.929,1413.836C516.269,1398.685 536.204,1386.325 557.734,1376.757C584.579,1364.53 610.628,1358.416 635.879,1358.416C661.13,1358.416 678.54,1366.258 688.108,1381.94C688.64,1383.535 688.906,1385.129 688.906,1386.724C688.906,1392.837 685.982,1403.669 680.134,1419.218C674.287,1434.767 665.25,1455.167 653.023,1480.418L602.787,1584.08C603.318,1584.878 616.874,1564.943 643.454,1524.275C657.276,1503.277 682.394,1477.096 718.808,1445.732C753.894,1415.43 778.214,1398.419 791.77,1394.698C795.225,1393.635 799.212,1393.103 803.731,1393.103C813.3,1393.103 821.473,1395.828 828.251,1401.277C835.029,1406.726 838.418,1412.374 838.418,1418.221C838.418,1420.348 837.886,1422.075 836.823,1423.404C816.888,1453.706 800.143,1491.183 786.587,1535.838C780.474,1556.038 775.889,1574.578 772.832,1591.456C769.775,1608.334 768.247,1623.418 768.247,1636.708C768.247,1656.909 772.367,1666.478 780.607,1665.415C783.265,1664.352 786.587,1663.222 790.574,1662.026C794.561,1660.83 799.345,1659.301 804.927,1657.441C805.725,1657.175 806.788,1657.042 808.117,1657.042C812.104,1657.042 808.648,1659.833 797.751,1665.415C787.119,1670.997 777.949,1673.787 770.24,1673.787Z" style="fill:#f3edde;fill-rule:nonzero;"/>
                    </g>
                    <g transform="matrix(2.142384,0,0,2.142384,707.247708,-1048.049103)">
                        <path d="M901.412,1620.76C896.096,1620.76 891.246,1619.033 886.86,1615.577C882.474,1612.122 879.883,1608.8 879.085,1605.61C878.288,1601.889 883.205,1588.599 893.837,1565.74L884.667,1578.897C880.68,1584.745 876.693,1589.928 872.706,1594.446C868.719,1598.965 864.998,1602.952 861.542,1606.407C851.442,1615.976 842.936,1619.963 836.026,1618.368C820.078,1614.647 812.104,1605.61 812.104,1591.257C812.104,1579.827 817.553,1565.208 828.45,1547.4C831.906,1542.084 836.291,1536.768 841.607,1531.452C846.923,1526.136 853.037,1520.953 859.948,1515.903C877.756,1502.878 894.9,1496.366 911.38,1496.366C921.48,1496.366 931.049,1499.024 940.086,1504.34C943.01,1506.467 944.472,1508.726 944.472,1511.118C944.472,1512.979 943.94,1513.909 942.877,1513.909C942.611,1513.909 942.345,1513.776 942.08,1513.51C936.498,1507.397 929.055,1504.34 919.753,1504.34C908.855,1504.34 897.027,1508.46 884.268,1516.7C871.51,1524.94 860.081,1535.97 849.98,1549.792C835.627,1569.727 828.45,1585.941 828.45,1598.433C828.45,1605.61 830.976,1610.129 836.026,1611.989C842.405,1614.647 855.961,1602.819 876.693,1576.505C885.199,1566.139 892.309,1556.836 898.023,1548.596C903.738,1540.356 908.323,1533.312 911.779,1527.465C913.373,1524.541 916.297,1523.079 920.55,1523.079C928.524,1523.079 932.511,1525.471 932.511,1530.256C932.511,1531.053 932.378,1531.585 932.112,1531.851C908.988,1568.531 897.425,1593.383 897.425,1606.407C897.425,1609.597 898.356,1611.325 900.216,1611.59C905.798,1613.185 915.101,1609.065 928.125,1599.231C943.807,1587.536 958.559,1571.986 972.381,1552.583C975.305,1548.596 977.963,1546.602 980.355,1546.602C981.152,1546.602 981.551,1546.868 981.551,1547.4C981.551,1548.729 980.355,1551.254 977.963,1554.975C972.381,1563.747 966.201,1571.986 959.423,1579.694C952.645,1587.403 945.136,1594.579 936.897,1601.224C925.201,1611.059 915.633,1617.172 908.19,1619.564C906.33,1620.362 904.07,1620.76 901.412,1620.76Z" style="fill:#f3edde;fill-rule:nonzero;"/>
                    </g>
                    <g transform="matrix(2.142384,0,0,2.142384,707.247708,-1048.049103)">
                        <path d="M932.511,1726.017C928.258,1726.017 924.271,1724.555 920.55,1721.631C916.297,1717.91 914.304,1713.923 914.569,1709.67C916.43,1689.204 920.683,1667.873 927.328,1645.679C933.973,1623.485 943.01,1600.294 954.439,1576.106C969.856,1542.881 987.797,1512.049 1008.264,1483.608C1012.251,1478.026 1020.092,1475.9 1031.787,1477.229C1034.977,1477.495 1036.571,1478.956 1036.571,1481.614C1036.571,1483.741 1035.774,1485.469 1034.179,1486.798C1018.231,1497.695 1001.486,1520.953 983.943,1556.57C984.74,1555.241 987.266,1552.317 991.518,1547.799C995.771,1543.28 1001.619,1536.901 1009.061,1528.661C1027.933,1508.726 1041.887,1498.759 1050.925,1498.759C1052.785,1499.29 1055.31,1499.755 1058.5,1500.154C1061.689,1500.553 1065.543,1501.018 1070.062,1501.549C1075.378,1501.549 1078.036,1505.802 1078.036,1514.308C1078.036,1532.382 1069.929,1552.45 1053.715,1574.511C1045.21,1586.207 1034.179,1596.971 1020.623,1606.806C1005.207,1617.438 991.784,1622.754 980.355,1622.754C969.723,1622.754 961.749,1617.97 956.433,1608.401C939.156,1643.486 929.986,1678.306 928.923,1712.86C928.923,1715.784 930.783,1717.91 934.504,1719.239C938.226,1720.568 939.687,1721.897 938.89,1723.226C937.827,1725.087 935.7,1726.017 932.511,1726.017ZM973.178,1610.394C980.886,1610.394 991.784,1605.743 1005.872,1596.44C1012.782,1591.921 1018.896,1587.004 1024.212,1581.688C1029.528,1576.372 1034.046,1570.79 1037.767,1564.943C1051.855,1542.881 1058.899,1526.402 1058.899,1515.504C1058.899,1510.454 1056.905,1507.929 1052.918,1507.929C1042.286,1507.929 1024.743,1521.617 1000.29,1548.995C977.165,1573.98 965.603,1592.054 965.603,1603.218C965.603,1608.002 968.128,1610.394 973.178,1610.394Z" style="fill:#f3edde;fill-rule:nonzero;"/>
                    </g>
                    <g transform="matrix(2.142384,0,0,2.142384,707.247708,-1048.049103)">
                        <path d="M1158.175,1619.166C1151.264,1617.571 1144.752,1613.85 1138.638,1608.002C1137.309,1606.673 1136.645,1604.68 1136.645,1602.022C1136.645,1591.39 1141.429,1576.505 1150.998,1557.367C1143.556,1566.936 1137.442,1574.777 1132.658,1580.891C1127.873,1587.004 1124.285,1591.39 1121.893,1594.048C1111.527,1606.009 1102.888,1613.185 1095.978,1615.577C1093.585,1616.375 1091.193,1616.773 1088.801,1616.773C1078.966,1616.773 1073.252,1612.786 1071.657,1604.813C1070.594,1602.42 1070.062,1599.098 1070.062,1594.845C1070.062,1581.821 1078.701,1556.969 1095.978,1520.288C1099.965,1511.783 1104.483,1507.53 1109.533,1507.53C1113.254,1507.53 1116.843,1510.321 1120.298,1515.903L1103.553,1548.995C1097.705,1560.424 1093.253,1570.259 1090.196,1578.498C1087.14,1586.738 1085.611,1593.117 1085.611,1597.636C1085.611,1604.015 1087.738,1607.205 1091.991,1607.205C1098.901,1607.205 1110.065,1598.3 1125.481,1580.492C1133.721,1570.923 1141.761,1560.291 1149.603,1548.596C1157.444,1536.901 1165.218,1524.142 1172.926,1510.321C1174.521,1507.131 1176.913,1505.536 1180.103,1505.536C1182.761,1505.536 1185.353,1506.666 1187.878,1508.925C1190.403,1511.185 1191.4,1512.846 1190.868,1513.909C1165.085,1567.335 1152.194,1598.035 1152.194,1606.009C1152.194,1609.198 1153.257,1610.527 1155.384,1609.996C1176.913,1608.135 1200.038,1589.13 1224.757,1552.982C1226.086,1550.589 1227.548,1549.26 1229.143,1548.995C1230.738,1548.463 1231.535,1548.995 1231.535,1550.589C1231.535,1551.653 1231.004,1553.115 1229.94,1554.975C1218.245,1573.315 1204.291,1589.396 1188.077,1603.218C1173.724,1615.179 1163.756,1620.495 1158.175,1619.166Z" style="fill:#f3edde;fill-rule:nonzero;"/>
                    </g>
                    <g transform="matrix(2.142384,0,0,2.142384,707.247708,-1048.049103)">
                        <path d="M1242.699,1623.95C1223.827,1619.963 1214.391,1611.192 1214.391,1597.636C1214.391,1589.662 1216.916,1578.1 1221.966,1562.949C1225.688,1551.52 1230.804,1538.429 1237.316,1523.677C1243.828,1508.925 1252.002,1492.512 1261.836,1474.438C1285.493,1430.049 1303.434,1406.925 1315.661,1405.064C1316.724,1404.798 1318.452,1404.666 1320.844,1404.666C1333.868,1404.666 1340.38,1410.779 1340.38,1423.006C1340.38,1439.751 1326.293,1463.54 1298.118,1494.373C1282.436,1511.916 1265.159,1527.465 1246.287,1541.021C1235.124,1567.601 1229.542,1587.137 1229.542,1599.629C1229.542,1607.869 1232.067,1612.786 1237.117,1614.381C1241.104,1615.444 1250.407,1610.66 1265.026,1600.028C1281.771,1587.801 1296.124,1572.917 1308.085,1555.374C1309.946,1552.716 1311.674,1551.387 1313.269,1551.387C1314.332,1551.387 1314.863,1551.918 1314.863,1552.982C1314.863,1554.045 1314.199,1555.64 1312.87,1557.766C1302.769,1573.98 1289.612,1589.396 1273.399,1604.015C1257.716,1618.368 1247.483,1625.013 1242.699,1623.95ZM1250.673,1530.256C1260.242,1523.079 1268.216,1515.903 1274.595,1508.726L1298.118,1480.817C1319.914,1455.035 1330.811,1436.03 1330.811,1423.803C1330.811,1421.411 1329.482,1420.215 1326.824,1420.215C1322.306,1420.215 1315.129,1426.727 1305.295,1439.751C1302.371,1444.004 1299.314,1448.124 1296.124,1452.111C1292.935,1456.098 1289.745,1460.218 1286.556,1464.47C1282.569,1470.318 1278.914,1476.033 1275.591,1481.614C1272.269,1487.196 1269.146,1492.911 1266.222,1498.759C1265.425,1499.822 1263.763,1503.011 1261.238,1508.327C1258.713,1513.643 1255.191,1520.953 1250.673,1530.256Z" style="fill:#f3edde;fill-rule:nonzero;"/>
                    </g>
                    <g transform="matrix(2.142384,0,0,2.142384,707.247708,-1048.049103)">
                        <path d="M1318.053,1619.564C1310.345,1619.564 1303.567,1617.704 1297.719,1613.983C1290.011,1608.667 1286.157,1600.958 1286.157,1590.858C1286.157,1579.96 1290.808,1566.67 1300.111,1550.988C1312.604,1530.522 1330.944,1512.58 1355.132,1497.164C1361.245,1493.177 1367.359,1491.183 1373.472,1491.183C1381.446,1491.183 1387.161,1493.708 1390.616,1498.759C1392.743,1501.682 1393.806,1505.005 1393.806,1508.726C1393.806,1519.89 1384.769,1532.116 1366.694,1545.406C1361.378,1549.128 1355.73,1552.516 1349.75,1555.573C1343.769,1558.63 1337.323,1560.823 1330.413,1562.152L1313.269,1565.74C1306.889,1577.169 1303.7,1586.738 1303.7,1594.446C1303.7,1605.078 1309.946,1610.394 1322.439,1610.394C1332.273,1610.394 1344.234,1606.274 1358.322,1598.035C1377.193,1587.137 1393.407,1571.986 1406.963,1552.583C1409.089,1549.393 1411.083,1547.799 1412.943,1547.799C1413.741,1547.799 1414.139,1548.33 1414.139,1549.393C1414.139,1550.722 1413.209,1552.716 1411.349,1555.374C1385.566,1594.181 1356.461,1615.444 1324.033,1619.166C1322.97,1619.431 1321.973,1619.564 1321.043,1619.564L1318.053,1619.564ZM1318.053,1558.962C1325.495,1558.962 1335.064,1555.64 1346.759,1548.995C1363.239,1539.692 1374.801,1527.731 1381.446,1513.112C1383.307,1509.391 1384.237,1506.334 1384.237,1503.942C1384.237,1501.549 1383.307,1500.353 1381.446,1500.353C1377.991,1500.353 1370.947,1504.606 1360.315,1513.112C1352.607,1519.757 1345.098,1526.867 1337.789,1534.442C1330.479,1542.017 1323.502,1550.058 1316.857,1558.563C1316.591,1558.829 1316.99,1558.962 1318.053,1558.962Z" style="fill:#f3edde;fill-rule:nonzero;"/>
                    </g>
                </g>
            </g>
            <g transform="matrix(1,0,0,1,5.296029,10.935681)">
                <g transform="matrix(1.48071,0,0,1.48071,-605.815581,-1352.606127)">
                    <g transform="matrix(125,0,0,125,1416.806209,2785.800705)">
                    </g>
                    <text x="1022.58px" y="2785.801px" style="font-family:'KannadaMN', 'Kannada MN';font-size:125px;fill:rgb(186,115,27);">cucina</text>
                </g>
                <g transform="matrix(1.48071,0,0,1.48071,262.269709,-1352.606127)">
                    <g transform="matrix(125,0,0,125,1285.519587,2785.800705)">
                    </g>
                    <text x="1022.58px" y="2785.801px" style="font-family:'KannadaMN', 'Kannada MN';font-size:125px;fill:rgb(186,115,27);">casa</text>
                </g>
                <g transform="matrix(1.48071,0,0,1.48071,910.323964,-1352.606127)">
                    <g transform="matrix(125,0,0,125,1430.661189,2785.800705)">
                    </g>
                    <text x="1022.58px" y="2785.801px" style="font-family:'KannadaMN', 'Kannada MN';font-size:125px;fill:rgb(186,115,27);">ricette</text>
                </g>
                <g transform="matrix(1,0,0,1,0,-11.877573)">
                    <circle cx="1647" cy="2734" r="20" style="fill:rgb(186,115,27);"/>
                </g>
                <g transform="matrix(1,0,0,1,649.110424,-11.877573)">
                    <circle cx="1647" cy="2734" r="20" style="fill:rgb(186,115,27);"/>
                </g>
            </g>
            <g transform="matrix(1,0,0,1,85,-1393)">
                <g>
                    <g transform="matrix(0.823243,-0.56769,0.56769,0.823243,-1352.767421,1568.602274)">
                        <ellipse cx="1860" cy="2951.5" rx="25" ry="32.5" style="fill:rgb(186,115,27);"/>
                    </g>
                    <g transform="matrix(-0.823243,-0.56769,-0.56769,0.823243,5130.767421,1568.602274)">
                        <ellipse cx="1860" cy="2951.5" rx="25" ry="32.5" style="fill:rgb(186,115,27);"/>
                    </g>
                    <g transform="matrix(0.823243,0.56769,0.56769,-0.823243,-1352.767421,4388.397726)">
                        <ellipse cx="1860" cy="2951.5" rx="25" ry="32.5" style="fill:rgb(186,115,27);"/>
                    </g>
                    <g transform="matrix(-0.823243,0.56769,-0.56769,-0.823243,5130.767421,4388.397726)">
                        <ellipse cx="1860" cy="2951.5" rx="25" ry="32.5" style="fill:rgb(186,115,27);"/>
                    </g>
                </g>
                <g transform="matrix(1,0,0,1,0,2)">
                    <rect x="2060" y="2973" width="380" height="7" style="fill:rgb(186,115,27);"/>
                </g>
                <g transform="matrix(1,0,0,1,-722,2)">
                    <rect x="2060" y="2973" width="380" height="7" style="fill:rgb(186,115,27);"/>
                </g>
            </g>
        </g>
    </g>
</svg>
