<?xml version="1.0" encoding="UTF-8" standalone="no"?>
<!DOCTYPE svg PUBLIC "-//W3C//DTD SVG 1.1//EN" "http://www.w3.org/Graphics/SVG/1.1/DTD/svg11.dtd">
<svg width="100%" height="100%" viewBox="0 0 3357 1048" version="1.1" xmlns="http://www.w3.org/2000/svg" xmlns:xlink="http://www.w3.org/1999/xlink" xml:space="preserve" xmlns:serif="http://www.serif.com/" style="fill-rule:evenodd;clip-rule:evenodd;stroke-linejoin:round;stroke-miterlimit:2;">
    <g transform="matrix(1,0,0,1,-321.606958,-1476.395629)">
        <g transform="matrix(1,0,0,1,41,-507.675379)">
            <g transform="matrix(1,0,0,1,-41.484485,224.288181)">
                <g transform="matrix(1,0,0,1,135,-18)">
                    <g transform="matrix(2.042001,0,0,2.918495,-793.255797,-2184.292625)">
                        <path d="M568.491,1524.375C539.691,1521.175 517.291,1514.908 501.291,1505.575C487.158,1496.775 480.091,1486.241 480.091,1473.975C480.091,1451.308 500.091,1429.841 540.091,1409.575C561.958,1398.641 586.358,1389.908 613.291,1383.375C640.225,1376.841 669.825,1372.641 702.091,1370.775C712.225,1370.241 722.291,1369.841 732.291,1369.575C742.291,1369.308 752.225,1369.175 762.091,1369.175C787.425,1369.175 810.425,1370.041 831.091,1371.775C851.758,1373.508 870.225,1376.108 886.491,1379.575C921.425,1387.308 938.891,1397.975 938.891,1411.575C938.891,1415.041 937.691,1418.775 935.291,1422.775C931.291,1428.908 927.958,1431.975 925.291,1431.975C924.491,1431.975 924.091,1431.575 924.091,1430.775C924.091,1429.708 925.158,1426.775 927.291,1421.975C928.358,1420.108 928.891,1418.375 928.891,1416.775C928.891,1405.041 907.025,1396.108 863.291,1389.975C847.025,1387.841 828.758,1386.241 808.491,1385.175C788.225,1384.108 765.958,1383.575 741.691,1383.575C734.758,1383.575 728.025,1383.641 721.491,1383.775C714.958,1383.908 708.758,1384.108 702.891,1384.375C648.491,1386.508 600.891,1397.841 560.091,1418.375C520.891,1437.841 501.291,1458.108 501.291,1479.175C501.291,1501.041 525.025,1514.508 572.491,1519.575C575.958,1519.841 577.691,1520.641 577.691,1521.975C577.691,1524.375 574.625,1525.175 568.491,1524.375ZM582.891,1646.775C571.958,1646.775 563.691,1642.375 558.091,1633.575C555.958,1630.108 554.891,1627.308 554.891,1625.175C554.891,1623.041 555.825,1621.975 557.691,1621.975C559.291,1621.975 563.158,1625.041 569.291,1631.175C575.691,1637.575 582.091,1640.775 588.491,1640.775C599.691,1640.775 612.358,1631.308 626.491,1612.375C639.558,1594.775 658.091,1562.241 682.091,1514.775C695.425,1488.108 706.091,1467.508 714.091,1452.975C722.091,1438.441 727.158,1429.841 729.291,1427.175C733.025,1423.175 736.758,1421.175 740.491,1421.175C743.691,1421.175 749.291,1423.041 757.291,1426.775C758.625,1427.575 759.291,1428.508 759.291,1429.575C759.291,1431.175 758.358,1432.641 756.491,1433.975C754.625,1435.308 753.025,1435.841 751.691,1435.575C746.091,1434.775 727.958,1463.975 697.291,1523.175C687.958,1541.308 678.891,1557.708 670.091,1572.375C661.291,1587.041 652.891,1599.841 644.891,1610.775C638.225,1620.108 628.758,1628.508 616.491,1635.975C604.491,1643.175 593.291,1646.775 582.891,1646.775Z" style="fill:rgb(68,36,13);fill-rule:nonzero;"/>
                    </g>
                    <g transform="matrix(2.042001,0,0,2.042001,-870.255797,-876.941094)">
                        <path d="M852.491,1619.175C845.558,1617.575 839.025,1613.841 832.891,1607.975C831.558,1606.641 830.891,1604.641 830.891,1601.975C830.891,1591.308 835.691,1576.375 845.291,1557.175C837.825,1566.775 831.691,1574.641 826.891,1580.775C822.091,1586.908 818.491,1591.308 816.091,1593.975C805.691,1605.975 797.025,1613.175 790.091,1615.575C787.691,1616.375 785.291,1616.775 782.891,1616.775C773.025,1616.775 767.291,1612.775 765.691,1604.775C764.625,1602.375 764.091,1599.041 764.091,1594.775C764.091,1581.708 772.758,1556.775 790.091,1519.975C794.091,1511.441 798.625,1507.175 803.691,1507.175C807.425,1507.175 811.025,1509.975 814.491,1515.575L797.691,1548.775C791.825,1560.241 787.358,1570.108 784.291,1578.375C781.225,1586.641 779.691,1593.041 779.691,1597.575C779.691,1603.975 781.825,1607.175 786.091,1607.175C793.025,1607.175 804.225,1598.241 819.691,1580.375C827.958,1570.775 836.025,1560.108 843.891,1548.375C851.758,1536.641 859.558,1523.841 867.291,1509.975C868.891,1506.775 871.291,1505.175 874.491,1505.175C877.158,1505.175 879.758,1506.308 882.291,1508.575C884.825,1510.841 885.825,1512.508 885.291,1513.575C859.425,1567.175 846.491,1597.975 846.491,1605.975C846.491,1609.175 847.558,1610.508 849.691,1609.975C871.291,1608.108 894.491,1589.041 919.291,1552.775C920.625,1550.375 922.091,1549.041 923.691,1548.775C925.291,1548.241 926.091,1548.775 926.091,1550.375C926.091,1551.441 925.558,1552.908 924.491,1554.775C912.758,1573.175 898.758,1589.308 882.491,1603.175C868.091,1615.175 858.091,1620.508 852.491,1619.175Z" style="fill:rgb(68,36,13);fill-rule:nonzero;"/>
                    </g>
                    <g transform="matrix(2.042001,0,0,2.042001,-870.255797,-876.941094)">
                        <path d="M940.091,1623.175C919.558,1618.641 909.291,1609.308 909.291,1595.175C909.291,1591.175 909.958,1586.441 911.291,1580.975C912.625,1575.508 914.758,1569.441 917.691,1562.775L951.691,1486.375C947.691,1486.908 943.291,1487.441 938.491,1487.975C933.691,1488.508 928.358,1489.041 922.491,1489.575C921.425,1489.575 920.891,1488.641 920.891,1486.775C920.891,1483.041 921.558,1480.908 922.891,1480.375L956.491,1475.575L982.491,1422.775C984.891,1417.975 992.358,1415.575 1004.891,1415.575C1010.758,1415.575 1013.291,1416.241 1012.491,1417.575C1006.625,1426.908 1000.691,1436.308 994.691,1445.775C988.691,1455.241 982.758,1464.641 976.891,1473.975C977.691,1473.708 979.425,1473.441 982.091,1473.175C984.758,1472.908 988.225,1472.641 992.491,1472.375C995.691,1472.108 998.758,1471.908 1001.691,1471.775C1004.625,1471.641 1007.425,1471.575 1010.091,1471.575C1021.291,1471.575 1026.625,1472.108 1026.091,1473.175C1024.225,1475.041 1006.091,1478.641 971.691,1483.975C942.625,1538.908 928.091,1577.708 928.091,1600.375C928.091,1608.641 930.491,1613.575 935.291,1615.175C939.025,1616.241 948.491,1611.308 963.691,1600.375C972.491,1593.975 980.491,1586.975 987.691,1579.375C994.891,1571.775 1001.425,1563.708 1007.291,1555.175C1009.158,1552.508 1010.891,1551.175 1012.491,1551.175C1013.558,1551.175 1014.091,1551.708 1014.091,1552.775C1014.091,1553.841 1013.425,1555.441 1012.091,1557.575C1001.958,1573.841 988.491,1589.175 971.691,1603.575C955.425,1617.708 944.891,1624.241 940.091,1623.175Z" style="fill:rgb(68,36,13);fill-rule:nonzero;"/>
                    </g>
                    <g transform="matrix(2.042001,0,0,2.042001,-870.255797,-876.941094)">
                        <path d="M1030.091,1623.175C1009.558,1618.641 999.291,1609.308 999.291,1595.175C999.291,1591.175 999.958,1586.441 1001.291,1580.975C1002.625,1575.508 1004.758,1569.441 1007.691,1562.775L1041.691,1486.375C1037.691,1486.908 1033.291,1487.441 1028.491,1487.975C1023.691,1488.508 1018.358,1489.041 1012.491,1489.575C1011.425,1489.575 1010.891,1488.641 1010.891,1486.775C1010.891,1483.041 1011.558,1480.908 1012.891,1480.375L1046.491,1475.575L1072.491,1422.775C1074.891,1417.975 1082.358,1415.575 1094.891,1415.575C1100.758,1415.575 1103.291,1416.241 1102.491,1417.575C1096.625,1426.908 1090.691,1436.308 1084.691,1445.775C1078.691,1455.241 1072.758,1464.641 1066.891,1473.975C1067.691,1473.708 1069.425,1473.441 1072.091,1473.175C1074.758,1472.908 1078.225,1472.641 1082.491,1472.375C1085.691,1472.108 1088.758,1471.908 1091.691,1471.775C1094.625,1471.641 1097.425,1471.575 1100.091,1471.575C1111.291,1471.575 1116.625,1472.108 1116.091,1473.175C1114.225,1475.041 1096.091,1478.641 1061.691,1483.975C1032.625,1538.908 1018.091,1577.708 1018.091,1600.375C1018.091,1608.641 1020.491,1613.575 1025.291,1615.175C1029.025,1616.241 1038.491,1611.308 1053.691,1600.375C1062.491,1593.975 1070.491,1586.975 1077.691,1579.375C1084.891,1571.775 1091.425,1563.708 1097.291,1555.175C1099.158,1552.508 1100.891,1551.175 1102.491,1551.175C1103.558,1551.175 1104.091,1551.708 1104.091,1552.775C1104.091,1553.841 1103.425,1555.441 1102.091,1557.575C1091.958,1573.841 1078.491,1589.175 1061.691,1603.575C1045.425,1617.708 1034.891,1624.241 1030.091,1623.175Z" style="fill:rgb(68,36,13);fill-rule:nonzero;"/>
                    </g>
                    <g transform="matrix(2.042001,0,0,2.042001,-870.255797,-876.941094)">
                        <path d="M1118.491,1620.775C1099.025,1620.775 1089.291,1608.775 1089.291,1584.775C1089.291,1560.775 1098.891,1537.841 1118.091,1515.975C1118.358,1515.708 1118.225,1514.708 1117.691,1512.975C1117.158,1511.241 1116.891,1509.975 1116.891,1509.175C1116.891,1507.575 1117.425,1506.375 1118.491,1505.575C1127.825,1498.108 1138.758,1494.375 1151.291,1494.375C1154.758,1494.375 1157.558,1495.041 1159.691,1496.375C1162.358,1497.441 1164.891,1498.508 1167.291,1499.575C1169.691,1500.641 1171.958,1501.841 1174.091,1503.175C1184.225,1509.308 1191.291,1515.708 1195.291,1522.375C1201.958,1522.108 1207.558,1521.841 1212.091,1521.575C1216.625,1521.308 1220.091,1521.041 1222.491,1520.775L1224.091,1520.775C1226.491,1520.775 1227.691,1521.708 1227.691,1523.575C1227.691,1524.108 1227.158,1524.508 1226.091,1524.775C1223.158,1525.308 1219.358,1525.975 1214.691,1526.775C1210.025,1527.575 1204.358,1528.375 1197.691,1529.175C1198.491,1531.041 1198.891,1533.175 1198.891,1535.575C1198.891,1537.441 1198.758,1538.775 1198.491,1539.575C1194.491,1561.175 1183.958,1580.108 1166.891,1596.375C1150.358,1612.641 1134.225,1620.775 1118.491,1620.775ZM1185.691,1522.375C1181.425,1515.708 1173.025,1512.375 1160.491,1512.375C1150.891,1512.375 1144.625,1513.441 1141.691,1515.575C1140.891,1515.841 1140.091,1516.375 1139.291,1517.175C1138.491,1517.975 1137.558,1518.908 1136.491,1519.975C1151.425,1521.841 1167.825,1522.641 1185.691,1522.375ZM1119.691,1614.375C1131.425,1614.375 1144.891,1605.975 1160.091,1589.175C1175.558,1572.375 1184.758,1556.108 1187.691,1540.375C1187.958,1539.041 1188.158,1537.908 1188.291,1536.975C1188.425,1536.041 1188.491,1535.175 1188.491,1534.375C1188.491,1532.775 1188.225,1531.175 1187.691,1529.575C1182.625,1529.841 1177.425,1529.975 1172.091,1529.975L1141.491,1529.975C1137.091,1529.975 1133.158,1529.841 1129.691,1529.575C1119.025,1543.975 1112.358,1555.575 1109.691,1564.375C1106.491,1574.241 1104.891,1583.708 1104.891,1592.775C1104.891,1607.175 1109.825,1614.375 1119.691,1614.375Z" style="fill:rgb(68,36,13);fill-rule:nonzero;"/>
                    </g>
                </g>
                <g transform="matrix(1,0,0,1,-58,-37.921221)">
                    <g transform="matrix(1.677615,0.124245,-0.201011,2.714134,1429.65196,-1967.777788)">
                        <path d="M770.24,1673.787C767.051,1673.787 764.526,1673.256 762.665,1672.193C751.767,1666.611 746.318,1654.916 746.318,1637.107C746.318,1613.717 754.425,1578.897 770.639,1532.648C777.55,1513.776 784.394,1494.772 791.172,1475.634C797.95,1456.496 804.794,1437.359 811.705,1418.221C811.971,1417.158 812.17,1416.228 812.303,1415.43C812.436,1414.633 812.502,1413.836 812.502,1413.038C812.502,1407.456 809.712,1404.666 804.13,1404.666C798.016,1404.666 789.245,1407.589 777.816,1413.437C752.565,1425.93 725.187,1447.858 695.684,1479.222C659.269,1517.763 626.974,1563.747 598.8,1617.172C599.331,1618.501 600.926,1619.764 603.584,1620.96C606.242,1622.156 606.907,1623.286 605.578,1624.349C605.578,1627.804 599.996,1629.532 588.832,1629.532C578.998,1629.532 574.08,1628.07 574.08,1625.146C574.08,1617.438 577.004,1605.411 582.852,1589.064C588.699,1572.717 597.869,1552.051 610.362,1527.066L648.238,1451.313C655.947,1436.429 661.462,1423.537 664.784,1412.64C668.107,1401.742 669.768,1393.103 669.768,1386.724C669.768,1372.637 658.073,1365.593 634.683,1365.593C614.216,1365.593 585.377,1374.364 548.165,1391.907C527.167,1402.008 508.96,1415.563 493.543,1432.574C476.532,1450.649 468.026,1467.394 468.026,1482.811C468.026,1492.645 471.947,1500.818 479.788,1507.331C487.629,1513.843 497.53,1517.099 509.491,1517.099C514.01,1517.099 518.395,1516.7 522.648,1515.903L528.23,1515.105C512.016,1521.219 500.72,1524.275 494.341,1524.275C486.367,1524.275 478.791,1522.946 471.615,1520.288C457.793,1515.238 450.882,1504.739 450.882,1488.791C450.882,1476.564 454.604,1464.205 462.046,1451.712C468.425,1440.548 480.386,1427.923 497.929,1413.836C516.269,1398.685 536.204,1386.325 557.734,1376.757C584.579,1364.53 610.628,1358.416 635.879,1358.416C661.13,1358.416 678.54,1366.258 688.108,1381.94C688.64,1383.535 688.906,1385.129 688.906,1386.724C688.906,1392.837 685.982,1403.669 680.134,1419.218C674.287,1434.767 665.25,1455.167 653.023,1480.418L602.787,1584.08C603.318,1584.878 616.874,1564.943 643.454,1524.275C657.276,1503.277 682.394,1477.096 718.808,1445.732C753.894,1415.43 778.214,1398.419 791.77,1394.698C795.225,1393.635 799.212,1393.103 803.731,1393.103C813.3,1393.103 821.473,1395.828 828.251,1401.277C835.029,1406.726 838.418,1412.374 838.418,1418.221C838.418,1420.348 837.886,1422.075 836.823,1423.404C816.888,1453.706 800.143,1491.183 786.587,1535.838C780.474,1556.038 775.889,1574.578 772.832,1591.456C769.775,1608.334 768.247,1623.418 768.247,1636.708C768.247,1656.909 772.367,1666.478 780.607,1665.415C783.265,1664.352 786.587,1663.222 790.574,1662.026C794.561,1660.83 799.345,1659.301 804.927,1657.441C805.725,1657.175 806.788,1657.042 808.117,1657.042C812.104,1657.042 808.648,1659.833 797.751,1665.415C787.119,1670.997 777.949,1673.787 770.24,1673.787Z" style="fill:rgb(68,36,13);fill-rule:nonzero;"/>
                    </g>
                    <g transform="matrix(2.142384,0,0,2.142384,707.247708,-1048.049103)">
                        <path d="M901.412,1620.76C896.096,1620.76 891.246,1619.033 886.86,1615.577C882.474,1612.122 879.883,1608.8 879.085,1605.61C878.288,1601.889 883.205,1588.599 893.837,1565.74L884.667,1578.897C880.68,1584.745 876.693,1589.928 872.706,1594.446C868.719,1598.965 864.998,1602.952 861.542,1606.407C851.442,1615.976 842.936,1619.963 836.026,1618.368C820.078,1614.647 812.104,1605.61 812.104,1591.257C812.104,1579.827 817.553,1565.208 828.45,1547.4C831.906,1542.084 836.291,1536.768 841.607,1531.452C846.923,1526.136 853.037,1520.953 859.948,1515.903C877.756,1502.878 894.9,1496.366 911.38,1496.366C921.48,1496.366 931.049,1499.024 940.086,1504.34C943.01,1506.467 944.472,1508.726 944.472,1511.118C944.472,1512.979 943.94,1513.909 942.877,1513.909C942.611,1513.909 942.345,1513.776 942.08,1513.51C936.498,1507.397 929.055,1504.34 919.753,1504.34C908.855,1504.34 897.027,1508.46 884.268,1516.7C871.51,1524.94 860.081,1535.97 849.98,1549.792C835.627,1569.727 828.45,1585.941 828.45,1598.433C828.45,1605.61 830.976,1610.129 836.026,1611.989C842.405,1614.647 855.961,1602.819 876.693,1576.505C885.199,1566.139 892.309,1556.836 898.023,1548.596C903.738,1540.356 908.323,1533.312 911.779,1527.465C913.373,1524.541 916.297,1523.079 920.55,1523.079C928.524,1523.079 932.511,1525.471 932.511,1530.256C932.511,1531.053 932.378,1531.585 932.112,1531.851C908.988,1568.531 897.425,1593.383 897.425,1606.407C897.425,1609.597 898.356,1611.325 900.216,1611.59C905.798,1613.185 915.101,1609.065 928.125,1599.231C943.807,1587.536 958.559,1571.986 972.381,1552.583C975.305,1548.596 977.963,1546.602 980.355,1546.602C981.152,1546.602 981.551,1546.868 981.551,1547.4C981.551,1548.729 980.355,1551.254 977.963,1554.975C972.381,1563.747 966.201,1571.986 959.423,1579.694C952.645,1587.403 945.136,1594.579 936.897,1601.224C925.201,1611.059 915.633,1617.172 908.19,1619.564C906.33,1620.362 904.07,1620.76 901.412,1620.76Z" style="fill:rgb(68,36,13);fill-rule:nonzero;"/>
                    </g>
                    <g transform="matrix(2.142384,0,0,2.142384,707.247708,-1048.049103)">
                        <path d="M932.511,1726.017C928.258,1726.017 924.271,1724.555 920.55,1721.631C916.297,1717.91 914.304,1713.923 914.569,1709.67C916.43,1689.204 920.683,1667.873 927.328,1645.679C933.973,1623.485 943.01,1600.294 954.439,1576.106C969.856,1542.881 987.797,1512.049 1008.264,1483.608C1012.251,1478.026 1020.092,1475.9 1031.787,1477.229C1034.977,1477.495 1036.571,1478.956 1036.571,1481.614C1036.571,1483.741 1035.774,1485.469 1034.179,1486.798C1018.231,1497.695 1001.486,1520.953 983.943,1556.57C984.74,1555.241 987.266,1552.317 991.518,1547.799C995.771,1543.28 1001.619,1536.901 1009.061,1528.661C1027.933,1508.726 1041.887,1498.759 1050.925,1498.759C1052.785,1499.29 1055.31,1499.755 1058.5,1500.154C1061.689,1500.553 1065.543,1501.018 1070.062,1501.549C1075.378,1501.549 1078.036,1505.802 1078.036,1514.308C1078.036,1532.382 1069.929,1552.45 1053.715,1574.511C1045.21,1586.207 1034.179,1596.971 1020.623,1606.806C1005.207,1617.438 991.784,1622.754 980.355,1622.754C969.723,1622.754 961.749,1617.97 956.433,1608.401C939.156,1643.486 929.986,1678.306 928.923,1712.86C928.923,1715.784 930.783,1717.91 934.504,1719.239C938.226,1720.568 939.687,1721.897 938.89,1723.226C937.827,1725.087 935.7,1726.017 932.511,1726.017ZM973.178,1610.394C980.886,1610.394 991.784,1605.743 1005.872,1596.44C1012.782,1591.921 1018.896,1587.004 1024.212,1581.688C1029.528,1576.372 1034.046,1570.79 1037.767,1564.943C1051.855,1542.881 1058.899,1526.402 1058.899,1515.504C1058.899,1510.454 1056.905,1507.929 1052.918,1507.929C1042.286,1507.929 1024.743,1521.617 1000.29,1548.995C977.165,1573.98 965.603,1592.054 965.603,1603.218C965.603,1608.002 968.128,1610.394 973.178,1610.394Z" style="fill:rgb(68,36,13);fill-rule:nonzero;"/>
                    </g>
                    <g transform="matrix(2.142384,0,0,2.142384,707.247708,-1048.049103)">
                        <path d="M1158.175,1619.166C1151.264,1617.571 1144.752,1613.85 1138.638,1608.002C1137.309,1606.673 1136.645,1604.68 1136.645,1602.022C1136.645,1591.39 1141.429,1576.505 1150.998,1557.367C1143.556,1566.936 1137.442,1574.777 1132.658,1580.891C1127.873,1587.004 1124.285,1591.39 1121.893,1594.048C1111.527,1606.009 1102.888,1613.185 1095.978,1615.577C1093.585,1616.375 1091.193,1616.773 1088.801,1616.773C1078.966,1616.773 1073.252,1612.786 1071.657,1604.813C1070.594,1602.42 1070.062,1599.098 1070.062,1594.845C1070.062,1581.821 1078.701,1556.969 1095.978,1520.288C1099.965,1511.783 1104.483,1507.53 1109.533,1507.53C1113.254,1507.53 1116.843,1510.321 1120.298,1515.903L1103.553,1548.995C1097.705,1560.424 1093.253,1570.259 1090.196,1578.498C1087.14,1586.738 1085.611,1593.117 1085.611,1597.636C1085.611,1604.015 1087.738,1607.205 1091.991,1607.205C1098.901,1607.205 1110.065,1598.3 1125.481,1580.492C1133.721,1570.923 1141.761,1560.291 1149.603,1548.596C1157.444,1536.901 1165.218,1524.142 1172.926,1510.321C1174.521,1507.131 1176.913,1505.536 1180.103,1505.536C1182.761,1505.536 1185.353,1506.666 1187.878,1508.925C1190.403,1511.185 1191.4,1512.846 1190.868,1513.909C1165.085,1567.335 1152.194,1598.035 1152.194,1606.009C1152.194,1609.198 1153.257,1610.527 1155.384,1609.996C1176.913,1608.135 1200.038,1589.13 1224.757,1552.982C1226.086,1550.589 1227.548,1549.26 1229.143,1548.995C1230.738,1548.463 1231.535,1548.995 1231.535,1550.589C1231.535,1551.653 1231.004,1553.115 1229.94,1554.975C1218.245,1573.315 1204.291,1589.396 1188.077,1603.218C1173.724,1615.179 1163.756,1620.495 1158.175,1619.166Z" style="fill:rgb(68,36,13);fill-rule:nonzero;"/>
                    </g>
                    <g transform="matrix(2.142384,0,0,2.142384,707.247708,-1048.049103)">
                        <path d="M1242.699,1623.95C1223.827,1619.963 1214.391,1611.192 1214.391,1597.636C1214.391,1589.662 1216.916,1578.1 1221.966,1562.949C1225.688,1551.52 1230.804,1538.429 1237.316,1523.677C1243.828,1508.925 1252.002,1492.512 1261.836,1474.438C1285.493,1430.049 1303.434,1406.925 1315.661,1405.064C1316.724,1404.798 1318.452,1404.666 1320.844,1404.666C1333.868,1404.666 1340.38,1410.779 1340.38,1423.006C1340.38,1439.751 1326.293,1463.54 1298.118,1494.373C1282.436,1511.916 1265.159,1527.465 1246.287,1541.021C1235.124,1567.601 1229.542,1587.137 1229.542,1599.629C1229.542,1607.869 1232.067,1612.786 1237.117,1614.381C1241.104,1615.444 1250.407,1610.66 1265.026,1600.028C1281.771,1587.801 1296.124,1572.917 1308.085,1555.374C1309.946,1552.716 1311.674,1551.387 1313.269,1551.387C1314.332,1551.387 1314.863,1551.918 1314.863,1552.982C1314.863,1554.045 1314.199,1555.64 1312.87,1557.766C1302.769,1573.98 1289.612,1589.396 1273.399,1604.015C1257.716,1618.368 1247.483,1625.013 1242.699,1623.95ZM1250.673,1530.256C1260.242,1523.079 1268.216,1515.903 1274.595,1508.726L1298.118,1480.817C1319.914,1455.035 1330.811,1436.03 1330.811,1423.803C1330.811,1421.411 1329.482,1420.215 1326.824,1420.215C1322.306,1420.215 1315.129,1426.727 1305.295,1439.751C1302.371,1444.004 1299.314,1448.124 1296.124,1452.111C1292.935,1456.098 1289.745,1460.218 1286.556,1464.47C1282.569,1470.318 1278.914,1476.033 1275.591,1481.614C1272.269,1487.196 1269.146,1492.911 1266.222,1498.759C1265.425,1499.822 1263.763,1503.011 1261.238,1508.327C1258.713,1513.643 1255.191,1520.953 1250.673,1530.256Z" style="fill:rgb(68,36,13);fill-rule:nonzero;"/>
                    </g>
                    <g transform="matrix(2.142384,0,0,2.142384,707.247708,-1048.049103)">
                        <path d="M1318.053,1619.564C1310.345,1619.564 1303.567,1617.704 1297.719,1613.983C1290.011,1608.667 1286.157,1600.958 1286.157,1590.858C1286.157,1579.96 1290.808,1566.67 1300.111,1550.988C1312.604,1530.522 1330.944,1512.58 1355.132,1497.164C1361.245,1493.177 1367.359,1491.183 1373.472,1491.183C1381.446,1491.183 1387.161,1493.708 1390.616,1498.759C1392.743,1501.682 1393.806,1505.005 1393.806,1508.726C1393.806,1519.89 1384.769,1532.116 1366.694,1545.406C1361.378,1549.128 1355.73,1552.516 1349.75,1555.573C1343.769,1558.63 1337.323,1560.823 1330.413,1562.152L1313.269,1565.74C1306.889,1577.169 1303.7,1586.738 1303.7,1594.446C1303.7,1605.078 1309.946,1610.394 1322.439,1610.394C1332.273,1610.394 1344.234,1606.274 1358.322,1598.035C1377.193,1587.137 1393.407,1571.986 1406.963,1552.583C1409.089,1549.393 1411.083,1547.799 1412.943,1547.799C1413.741,1547.799 1414.139,1548.33 1414.139,1549.393C1414.139,1550.722 1413.209,1552.716 1411.349,1555.374C1385.566,1594.181 1356.461,1615.444 1324.033,1619.166C1322.97,1619.431 1321.973,1619.564 1321.043,1619.564L1318.053,1619.564ZM1318.053,1558.962C1325.495,1558.962 1335.064,1555.64 1346.759,1548.995C1363.239,1539.692 1374.801,1527.731 1381.446,1513.112C1383.307,1509.391 1384.237,1506.334 1384.237,1503.942C1384.237,1501.549 1383.307,1500.353 1381.446,1500.353C1377.991,1500.353 1370.947,1504.606 1360.315,1513.112C1352.607,1519.757 1345.098,1526.867 1337.789,1534.442C1330.479,1542.017 1323.502,1550.058 1316.857,1558.563C1316.591,1558.829 1316.99,1558.962 1318.053,1558.962Z" style="fill:rgb(68,36,13);fill-rule:nonzero;"/>
                    </g>
                </g>
            </g>
            <g transform="matrix(1,0,0,1,-9.703971,256.935681)">
                <g transform="matrix(1.48071,0,0,1.48071,-605.815581,-1352.606127)">
                    <path d="M1075.437,2739.78C1074.989,2738.275 1074.379,2736.749 1073.606,2735.203C1072.832,2733.656 1071.825,2732.263 1070.584,2731.022C1069.343,2729.781 1067.838,2728.763 1066.068,2727.97C1064.298,2727.176 1062.212,2726.78 1059.812,2726.78C1056.801,2726.78 1054.105,2727.349 1051.724,2728.489C1049.344,2729.628 1047.33,2731.174 1045.682,2733.127C1044.034,2735.08 1042.773,2737.359 1041.898,2739.963C1041.023,2742.567 1040.586,2745.334 1040.586,2748.264C1040.586,2752.252 1041.135,2756.026 1042.233,2759.586C1043.332,2763.146 1044.878,2766.269 1046.872,2768.955C1048.866,2771.641 1051.277,2773.767 1054.105,2775.333C1056.933,2776.9 1060.076,2777.683 1063.535,2777.683C1066.668,2777.683 1069.364,2777.246 1071.622,2776.371C1073.88,2775.496 1075.833,2774.306 1077.481,2772.8C1079.129,2771.295 1080.523,2769.545 1081.662,2767.551C1082.801,2765.557 1083.798,2763.462 1084.653,2761.265L1086.362,2761.997C1085.263,2765.985 1083.849,2769.535 1082.12,2772.648C1080.391,2775.76 1078.366,2778.385 1076.047,2780.521C1073.728,2782.657 1071.123,2784.295 1068.234,2785.434C1065.345,2786.574 1062.212,2787.143 1058.835,2787.143C1054.929,2787.143 1051.256,2786.34 1047.818,2784.733C1044.38,2783.125 1041.379,2780.918 1038.815,2778.11C1036.252,2775.303 1034.238,2772.027 1032.773,2768.284C1031.308,2764.54 1030.576,2760.532 1030.576,2756.26C1030.576,2751.54 1031.39,2747.104 1033.017,2742.954C1034.645,2738.804 1036.873,2735.192 1039.7,2732.12C1042.528,2729.048 1045.835,2726.617 1049.619,2724.827C1053.403,2723.036 1057.431,2722.141 1061.704,2722.141C1064.023,2722.141 1066.261,2722.426 1068.418,2722.996C1070.574,2723.565 1072.558,2724.389 1074.368,2725.467C1076.179,2726.546 1077.786,2727.848 1079.19,2729.374C1080.594,2730.9 1081.723,2732.619 1082.578,2734.531L1075.437,2739.78Z" style="fill:rgb(186,115,27);fill-rule:nonzero;"/>
                    <path d="M1116.269,2723.301L1116.269,2767.795C1116.269,2769.342 1116.666,2770.806 1117.459,2772.19C1118.253,2773.573 1119.321,2774.774 1120.664,2775.791C1122.006,2776.808 1123.583,2777.612 1125.394,2778.202C1127.205,2778.792 1129.148,2779.087 1131.223,2779.087C1132.606,2779.087 1134.02,2778.761 1135.465,2778.11C1136.909,2777.459 1138.333,2776.584 1139.737,2775.486C1141.141,2774.387 1142.484,2773.126 1143.765,2771.702C1145.047,2770.277 1146.197,2768.813 1147.214,2767.307L1147.214,2723.301L1157.102,2723.301L1157.102,2785.801L1147.214,2785.801L1147.214,2774.814C1145.505,2776.89 1143.694,2778.69 1141.782,2780.216C1139.869,2781.742 1137.937,2783.024 1135.983,2784.061C1134.03,2785.099 1132.108,2785.872 1130.216,2786.381C1128.324,2786.889 1126.523,2787.143 1124.814,2787.143C1122.251,2787.143 1119.85,2786.635 1117.612,2785.618C1115.374,2784.6 1113.411,2783.217 1111.722,2781.467C1110.033,2779.718 1108.701,2777.663 1107.724,2775.303C1106.748,2772.943 1106.259,2770.44 1106.259,2767.795L1106.259,2723.301L1116.269,2723.301Z" style="fill:rgb(186,115,27);fill-rule:nonzero;"/>
                    <path d="M1222.165,2739.78C1221.718,2738.275 1221.107,2736.749 1220.334,2735.203C1219.561,2733.656 1218.554,2732.263 1217.313,2731.022C1216.072,2729.781 1214.566,2728.763 1212.796,2727.97C1211.026,2727.176 1208.941,2726.78 1206.54,2726.78C1203.529,2726.78 1200.833,2727.349 1198.453,2728.489C1196.073,2729.628 1194.058,2731.174 1192.41,2733.127C1190.763,2735.08 1189.501,2737.359 1188.626,2739.963C1187.751,2742.567 1187.314,2745.334 1187.314,2748.264C1187.314,2752.252 1187.863,2756.026 1188.962,2759.586C1190.061,2763.146 1191.607,2766.269 1193.601,2768.955C1195.594,2771.641 1198.005,2773.767 1200.833,2775.333C1203.661,2776.9 1206.805,2777.683 1210.263,2777.683C1213.396,2777.683 1216.092,2777.246 1218.35,2776.371C1220.609,2775.496 1222.562,2774.306 1224.21,2772.8C1225.858,2771.295 1227.251,2769.545 1228.391,2767.551C1229.53,2765.557 1230.527,2763.462 1231.381,2761.265L1233.09,2761.997C1231.992,2765.985 1230.578,2769.535 1228.848,2772.648C1227.119,2775.76 1225.095,2778.385 1222.775,2780.521C1220.456,2782.657 1217.852,2784.295 1214.963,2785.434C1212.074,2786.574 1208.941,2787.143 1205.564,2787.143C1201.657,2787.143 1197.985,2786.34 1194.547,2784.733C1191.108,2783.125 1188.107,2780.918 1185.544,2778.11C1182.981,2775.303 1180.966,2772.027 1179.502,2768.284C1178.037,2764.54 1177.304,2760.532 1177.304,2756.26C1177.304,2751.54 1178.118,2747.104 1179.746,2742.954C1181.373,2738.804 1183.601,2735.192 1186.429,2732.12C1189.257,2729.048 1192.563,2726.617 1196.347,2724.827C1200.131,2723.036 1204.16,2722.141 1208.432,2722.141C1210.752,2722.141 1212.989,2722.426 1215.146,2722.996C1217.303,2723.565 1219.286,2724.389 1221.097,2725.467C1222.908,2726.546 1224.515,2727.848 1225.919,2729.374C1227.323,2730.9 1228.452,2732.619 1229.306,2734.531L1222.165,2739.78Z" style="fill:rgb(186,115,27);fill-rule:nonzero;"/>
                    <path d="M1253.964,2725.376L1261.899,2722.141L1263.852,2722.141L1263.852,2785.801L1253.964,2785.801L1253.964,2725.376ZM1252.988,2699.375C1252.988,2698.398 1253.14,2697.483 1253.446,2696.628C1253.751,2695.774 1254.168,2695.021 1254.697,2694.37C1255.226,2693.719 1255.846,2693.21 1256.558,2692.844C1257.27,2692.478 1258.033,2692.295 1258.847,2692.295C1259.661,2692.295 1260.424,2692.478 1261.136,2692.844C1261.848,2693.21 1262.469,2693.719 1262.998,2694.37C1263.527,2695.021 1263.944,2695.774 1264.249,2696.628C1264.554,2697.483 1264.707,2698.398 1264.707,2699.375C1264.707,2700.351 1264.554,2701.267 1264.249,2702.122C1263.944,2702.976 1263.527,2703.729 1262.998,2704.38C1262.469,2705.031 1261.848,2705.539 1261.136,2705.906C1260.424,2706.272 1259.661,2706.455 1258.847,2706.455C1258.033,2706.455 1257.27,2706.272 1256.558,2705.906C1255.846,2705.539 1255.226,2705.031 1254.697,2704.38C1254.168,2703.729 1253.751,2702.976 1253.446,2702.122C1253.14,2701.267 1252.988,2700.351 1252.988,2699.375Z" style="fill:rgb(186,115,27);fill-rule:nonzero;"/>
                    <path d="M1297.238,2722.141L1299.13,2722.141L1299.13,2734.287C1303.973,2730.055 1308.438,2726.973 1312.528,2725.04C1316.617,2723.107 1320.615,2722.141 1324.521,2722.141C1326.515,2722.141 1328.397,2722.629 1330.167,2723.606C1331.937,2724.582 1333.473,2725.925 1334.775,2727.634C1336.077,2729.343 1337.104,2731.347 1337.857,2733.646C1338.61,2735.945 1338.986,2738.397 1338.986,2741.001L1338.986,2785.801L1329.038,2785.801L1329.038,2743.137C1329.038,2741.062 1328.763,2739.241 1328.214,2737.674C1327.664,2736.108 1326.891,2734.796 1325.894,2733.738C1324.897,2732.68 1323.717,2731.876 1322.354,2731.327C1320.991,2730.778 1319.496,2730.503 1317.868,2730.503C1316.444,2730.503 1314.939,2730.778 1313.352,2731.327C1311.765,2731.876 1310.168,2732.609 1308.56,2733.524C1306.953,2734.44 1305.346,2735.508 1303.739,2736.728C1302.131,2737.949 1300.595,2739.231 1299.13,2740.574L1299.13,2785.801L1289.121,2785.801L1289.121,2725.315L1297.238,2722.141Z" style="fill:rgb(186,115,27);fill-rule:nonzero;"/>
                    <path d="M1406.491,2777.256C1406.491,2779.128 1407.061,2780.816 1408.2,2782.322C1409.34,2783.827 1410.764,2784.987 1412.473,2785.801L1401.608,2785.801C1400.184,2785.109 1398.974,2784.021 1397.977,2782.535C1396.98,2781.05 1396.482,2779.29 1396.482,2777.256C1395.261,2778.11 1393.908,2779.107 1392.423,2780.247C1390.937,2781.386 1389.279,2782.464 1387.448,2783.481C1385.617,2784.499 1383.583,2785.363 1381.345,2786.075C1379.107,2786.787 1376.625,2787.143 1373.898,2787.143C1371.62,2787.143 1369.575,2786.747 1367.764,2785.953C1365.954,2785.16 1364.418,2784.071 1363.156,2782.688C1361.895,2781.304 1360.918,2779.656 1360.227,2777.744C1359.535,2775.832 1359.189,2773.777 1359.189,2771.58C1359.189,2768.853 1359.708,2766.392 1360.745,2764.194C1361.783,2761.997 1363.207,2760.013 1365.018,2758.243C1366.829,2756.473 1368.944,2754.907 1371.366,2753.544C1373.787,2752.181 1376.381,2750.96 1379.148,2749.882C1381.914,2748.803 1384.783,2747.857 1387.753,2747.043C1390.724,2746.23 1393.633,2745.477 1396.482,2744.785L1396.482,2741.55C1396.482,2738.702 1396.258,2736.301 1395.81,2734.348C1395.363,2732.395 1394.661,2730.818 1393.704,2729.618C1392.748,2728.417 1391.538,2727.563 1390.073,2727.054C1388.608,2726.546 1386.838,2726.291 1384.763,2726.291C1382.85,2726.291 1381.08,2726.637 1379.453,2727.329C1377.825,2728.021 1376.401,2728.946 1375.18,2730.106C1373.96,2731.266 1372.963,2732.629 1372.19,2734.195C1371.416,2735.762 1370.908,2737.42 1370.664,2739.17L1361.752,2739.17C1362.078,2736.484 1362.973,2734.084 1364.438,2731.968C1365.903,2729.852 1367.744,2728.072 1369.962,2726.627C1372.179,2725.183 1374.682,2724.074 1377.469,2723.301C1380.256,2722.528 1383.155,2722.141 1386.167,2722.141C1390.032,2722.141 1393.267,2722.538 1395.871,2723.331C1398.475,2724.125 1400.561,2725.233 1402.127,2726.658C1403.694,2728.082 1404.813,2729.821 1405.484,2731.876C1406.156,2733.931 1406.491,2736.199 1406.491,2738.682L1406.491,2777.256ZM1396.482,2749.424C1393.348,2750.278 1390.154,2751.346 1386.899,2752.628C1383.644,2753.91 1380.704,2755.344 1378.079,2756.931C1375.455,2758.518 1373.308,2760.268 1371.64,2762.18C1369.972,2764.093 1369.138,2766.127 1369.138,2768.284C1369.138,2769.83 1369.453,2771.285 1370.084,2772.648C1370.714,2774.011 1371.559,2775.211 1372.617,2776.249C1373.675,2777.286 1374.885,2778.1 1376.248,2778.69C1377.611,2779.28 1379.025,2779.575 1380.49,2779.575C1382.077,2779.575 1383.552,2779.351 1384.915,2778.904C1386.278,2778.456 1387.591,2777.876 1388.852,2777.164C1390.114,2776.452 1391.365,2775.638 1392.606,2774.723C1393.847,2773.807 1395.139,2772.861 1396.482,2771.885L1396.482,2749.424Z" style="fill:rgb(186,115,27);fill-rule:nonzero;"/>
                </g>
                <g transform="matrix(1.48071,0,0,1.48071,262.269709,-1352.606127)">
                    <path d="M1075.437,2739.78C1074.989,2738.275 1074.379,2736.749 1073.606,2735.203C1072.832,2733.656 1071.825,2732.263 1070.584,2731.022C1069.343,2729.781 1067.838,2728.763 1066.068,2727.97C1064.298,2727.176 1062.212,2726.78 1059.812,2726.78C1056.801,2726.78 1054.105,2727.349 1051.724,2728.489C1049.344,2729.628 1047.33,2731.174 1045.682,2733.127C1044.034,2735.08 1042.773,2737.359 1041.898,2739.963C1041.023,2742.567 1040.586,2745.334 1040.586,2748.264C1040.586,2752.252 1041.135,2756.026 1042.233,2759.586C1043.332,2763.146 1044.878,2766.269 1046.872,2768.955C1048.866,2771.641 1051.277,2773.767 1054.105,2775.333C1056.933,2776.9 1060.076,2777.683 1063.535,2777.683C1066.668,2777.683 1069.364,2777.246 1071.622,2776.371C1073.88,2775.496 1075.833,2774.306 1077.481,2772.8C1079.129,2771.295 1080.523,2769.545 1081.662,2767.551C1082.801,2765.557 1083.798,2763.462 1084.653,2761.265L1086.362,2761.997C1085.263,2765.985 1083.849,2769.535 1082.12,2772.648C1080.391,2775.76 1078.366,2778.385 1076.047,2780.521C1073.728,2782.657 1071.123,2784.295 1068.234,2785.434C1065.345,2786.574 1062.212,2787.143 1058.835,2787.143C1054.929,2787.143 1051.256,2786.34 1047.818,2784.733C1044.38,2783.125 1041.379,2780.918 1038.815,2778.11C1036.252,2775.303 1034.238,2772.027 1032.773,2768.284C1031.308,2764.54 1030.576,2760.532 1030.576,2756.26C1030.576,2751.54 1031.39,2747.104 1033.017,2742.954C1034.645,2738.804 1036.873,2735.192 1039.7,2732.12C1042.528,2729.048 1045.835,2726.617 1049.619,2724.827C1053.403,2723.036 1057.431,2722.141 1061.704,2722.141C1064.023,2722.141 1066.261,2722.426 1068.418,2722.996C1070.574,2723.565 1072.558,2724.389 1074.368,2725.467C1076.179,2726.546 1077.786,2727.848 1079.19,2729.374C1080.594,2730.9 1081.723,2732.619 1082.578,2734.531L1075.437,2739.78Z" style="fill:rgb(186,115,27);fill-rule:nonzero;"/>
                    <path d="M1149.35,2777.256C1149.35,2779.128 1149.92,2780.816 1151.059,2782.322C1152.198,2783.827 1153.623,2784.987 1155.332,2785.801L1144.467,2785.801C1143.043,2785.109 1141.833,2784.021 1140.836,2782.535C1139.839,2781.05 1139.34,2779.29 1139.34,2777.256C1138.12,2778.11 1136.767,2779.107 1135.282,2780.247C1133.796,2781.386 1132.138,2782.464 1130.307,2783.481C1128.476,2784.499 1126.442,2785.363 1124.204,2786.075C1121.966,2786.787 1119.484,2787.143 1116.757,2787.143C1114.479,2787.143 1112.434,2786.747 1110.623,2785.953C1108.813,2785.16 1107.277,2784.071 1106.015,2782.688C1104.754,2781.304 1103.777,2779.656 1103.086,2777.744C1102.394,2775.832 1102.048,2773.777 1102.048,2771.58C1102.048,2768.853 1102.567,2766.392 1103.604,2764.194C1104.642,2761.997 1106.066,2760.013 1107.877,2758.243C1109.687,2756.473 1111.803,2754.907 1114.224,2753.544C1116.645,2752.181 1119.239,2750.96 1122.006,2749.882C1124.773,2748.803 1127.642,2747.857 1130.612,2747.043C1133.583,2746.23 1136.492,2745.477 1139.34,2744.785L1139.34,2741.55C1139.34,2738.702 1139.117,2736.301 1138.669,2734.348C1138.221,2732.395 1137.52,2730.818 1136.563,2729.618C1135.607,2728.417 1134.397,2727.563 1132.932,2727.054C1131.467,2726.546 1129.697,2726.291 1127.622,2726.291C1125.709,2726.291 1123.939,2726.637 1122.312,2727.329C1120.684,2728.021 1119.26,2728.946 1118.039,2730.106C1116.818,2731.266 1115.822,2732.629 1115.048,2734.195C1114.275,2735.762 1113.767,2737.42 1113.523,2739.17L1104.611,2739.17C1104.937,2736.484 1105.832,2734.084 1107.297,2731.968C1108.762,2729.852 1110.603,2728.072 1112.821,2726.627C1115.038,2725.183 1117.541,2724.074 1120.328,2723.301C1123.115,2722.528 1126.014,2722.141 1129.025,2722.141C1132.891,2722.141 1136.126,2722.538 1138.73,2723.331C1141.334,2724.125 1143.42,2725.233 1144.986,2726.658C1146.553,2728.082 1147.672,2729.821 1148.343,2731.876C1149.014,2733.931 1149.35,2736.199 1149.35,2738.682L1149.35,2777.256ZM1139.34,2749.424C1136.207,2750.278 1133.013,2751.346 1129.758,2752.628C1126.503,2753.91 1123.563,2755.344 1120.938,2756.931C1118.314,2758.518 1116.167,2760.268 1114.499,2762.18C1112.831,2764.093 1111.997,2766.127 1111.997,2768.284C1111.997,2769.83 1112.312,2771.285 1112.943,2772.648C1113.573,2774.011 1114.418,2775.211 1115.476,2776.249C1116.534,2777.286 1117.744,2778.1 1119.107,2778.69C1120.47,2779.28 1121.884,2779.575 1123.349,2779.575C1124.936,2779.575 1126.411,2779.351 1127.774,2778.904C1129.137,2778.456 1130.45,2777.876 1131.711,2777.164C1132.972,2776.452 1134.224,2775.638 1135.465,2774.723C1136.706,2773.807 1137.998,2772.861 1139.34,2771.885L1139.34,2749.424Z" style="fill:rgb(186,115,27);fill-rule:nonzero;"/>
                    <path d="M1189.511,2782.81C1191.383,2782.81 1193.102,2782.556 1194.669,2782.047C1196.235,2781.538 1197.588,2780.857 1198.728,2780.002C1199.867,2779.148 1200.752,2778.161 1201.383,2777.042C1202.013,2775.923 1202.329,2774.774 1202.329,2773.594C1202.329,2771.6 1201.851,2769.86 1200.894,2768.375C1199.938,2766.89 1198.677,2765.568 1197.11,2764.408C1195.544,2763.248 1193.763,2762.19 1191.77,2761.234C1189.776,2760.278 1187.741,2759.311 1185.666,2758.335C1183.591,2757.358 1181.556,2756.311 1179.563,2755.192C1177.569,2754.073 1175.789,2752.791 1174.222,2751.346C1172.655,2749.902 1171.394,2748.223 1170.438,2746.311C1169.482,2744.399 1169.003,2742.14 1169.003,2739.536C1169.003,2737.054 1169.502,2734.745 1170.499,2732.609C1171.496,2730.472 1172.889,2728.631 1174.68,2727.085C1176.47,2725.539 1178.596,2724.328 1181.058,2723.453C1183.52,2722.578 1186.195,2722.141 1189.084,2722.141C1190.996,2722.141 1192.797,2722.283 1194.486,2722.568C1196.174,2722.853 1197.832,2723.413 1199.46,2724.247C1201.088,2725.081 1202.746,2726.261 1204.434,2727.787C1206.123,2729.313 1207.924,2731.317 1209.836,2733.799L1206.601,2736.728C1204.445,2733.188 1201.871,2730.564 1198.88,2728.855C1195.889,2727.146 1192.583,2726.291 1188.962,2726.291C1187.009,2726.291 1185.218,2726.505 1183.591,2726.932C1181.963,2727.36 1180.57,2727.95 1179.41,2728.702C1178.25,2729.455 1177.355,2730.34 1176.724,2731.357C1176.094,2732.375 1175.778,2733.453 1175.778,2734.592C1175.778,2736.545 1176.297,2738.244 1177.335,2739.689C1178.372,2741.133 1179.746,2742.425 1181.455,2743.564C1183.164,2744.704 1185.107,2745.762 1187.284,2746.738C1189.46,2747.715 1191.678,2748.691 1193.936,2749.668C1196.195,2750.644 1198.412,2751.692 1200.589,2752.811C1202.766,2753.93 1204.709,2755.212 1206.418,2756.656C1208.127,2758.101 1209.5,2759.769 1210.538,2761.661C1211.575,2763.553 1212.094,2765.761 1212.094,2768.284C1212.094,2770.928 1211.637,2773.4 1210.721,2775.699C1209.805,2777.998 1208.412,2779.992 1206.54,2781.681C1204.668,2783.369 1202.318,2784.702 1199.491,2785.679C1196.663,2786.655 1193.336,2787.143 1189.511,2787.143C1187.802,2787.143 1186.042,2787.001 1184.232,2786.716C1182.421,2786.431 1180.59,2785.872 1178.739,2785.038C1176.887,2784.204 1175.005,2783.024 1173.093,2781.498C1171.18,2779.972 1169.268,2777.988 1167.356,2775.547L1171.262,2772.068C1172.605,2774.021 1173.947,2775.679 1175.29,2777.042C1176.633,2778.405 1178.027,2779.514 1179.471,2780.369C1180.916,2781.223 1182.462,2781.844 1184.11,2782.23C1185.758,2782.617 1187.558,2782.81 1189.511,2782.81Z" style="fill:rgb(186,115,27);fill-rule:nonzero;"/>
                    <path d="M1275.205,2777.256C1275.205,2779.128 1275.774,2780.816 1276.914,2782.322C1278.053,2783.827 1279.477,2784.987 1281.186,2785.801L1270.322,2785.801C1268.898,2785.109 1267.687,2784.021 1266.69,2782.535C1265.693,2781.05 1265.195,2779.29 1265.195,2777.256C1263.974,2778.11 1262.621,2779.107 1261.136,2780.247C1259.651,2781.386 1257.993,2782.464 1256.162,2783.481C1254.331,2784.499 1252.296,2785.363 1250.058,2786.075C1247.82,2786.787 1245.338,2787.143 1242.612,2787.143C1240.333,2787.143 1238.289,2786.747 1236.478,2785.953C1234.667,2785.16 1233.131,2784.071 1231.87,2782.688C1230.608,2781.304 1229.632,2779.656 1228.94,2777.744C1228.248,2775.832 1227.902,2773.777 1227.902,2771.58C1227.902,2768.853 1228.421,2766.392 1229.459,2764.194C1230.496,2761.997 1231.921,2760.013 1233.731,2758.243C1235.542,2756.473 1237.658,2754.907 1240.079,2753.544C1242.5,2752.181 1245.094,2750.96 1247.861,2749.882C1250.628,2748.803 1253.496,2747.857 1256.467,2747.043C1259.437,2746.23 1262.347,2745.477 1265.195,2744.785L1265.195,2741.55C1265.195,2738.702 1264.971,2736.301 1264.523,2734.348C1264.076,2732.395 1263.374,2730.818 1262.418,2729.618C1261.462,2728.417 1260.251,2727.563 1258.786,2727.054C1257.321,2726.546 1255.551,2726.291 1253.476,2726.291C1251.564,2726.291 1249.794,2726.637 1248.166,2727.329C1246.538,2728.021 1245.114,2728.946 1243.894,2730.106C1242.673,2731.266 1241.676,2732.629 1240.903,2734.195C1240.13,2735.762 1239.621,2737.42 1239.377,2739.17L1230.466,2739.17C1230.791,2736.484 1231.687,2734.084 1233.151,2731.968C1234.616,2729.852 1236.457,2728.072 1238.675,2726.627C1240.893,2725.183 1243.395,2724.074 1246.182,2723.301C1248.97,2722.528 1251.869,2722.141 1254.88,2722.141C1258.745,2722.141 1261.98,2722.538 1264.585,2723.331C1267.189,2724.125 1269.274,2725.233 1270.841,2726.658C1272.407,2728.082 1273.526,2729.821 1274.198,2731.876C1274.869,2733.931 1275.205,2736.199 1275.205,2738.682L1275.205,2777.256ZM1265.195,2749.424C1262.062,2750.278 1258.868,2751.346 1255.612,2752.628C1252.357,2753.91 1249.417,2755.344 1246.793,2756.931C1244.168,2758.518 1242.022,2760.268 1240.354,2762.18C1238.685,2764.093 1237.851,2766.127 1237.851,2768.284C1237.851,2769.83 1238.166,2771.285 1238.797,2772.648C1239.428,2774.011 1240.272,2775.211 1241.33,2776.249C1242.388,2777.286 1243.599,2778.1 1244.962,2778.69C1246.325,2779.28 1247.739,2779.575 1249.204,2779.575C1250.791,2779.575 1252.266,2779.351 1253.629,2778.904C1254.992,2778.456 1256.304,2777.876 1257.565,2777.164C1258.827,2776.452 1260.078,2775.638 1261.319,2774.723C1262.56,2773.807 1263.852,2772.861 1265.195,2771.885L1265.195,2749.424Z" style="fill:rgb(186,115,27);fill-rule:nonzero;"/>
                </g>
                <g transform="matrix(1.48071,0,0,1.48071,910.323964,-1352.606127)">
                    <path d="M1042.844,2722.141L1043.088,2722.141L1044.736,2734.897C1046.282,2733.026 1047.92,2731.317 1049.649,2729.77C1051.379,2728.224 1053.149,2726.881 1054.959,2725.742C1056.77,2724.603 1058.621,2723.718 1060.513,2723.087C1062.406,2722.456 1064.267,2722.141 1066.098,2722.141C1067.726,2722.141 1069.333,2722.375 1070.92,2722.843C1072.507,2723.311 1074.012,2724.013 1075.437,2724.949L1072.019,2733.982C1070.961,2733.331 1070.025,2732.832 1069.211,2732.486C1068.397,2732.141 1067.604,2731.886 1066.831,2731.724C1066.058,2731.561 1065.244,2731.469 1064.389,2731.449C1063.535,2731.429 1062.558,2731.418 1061.46,2731.418C1059.669,2731.418 1057.919,2731.774 1056.211,2732.486C1054.502,2733.199 1052.915,2734.134 1051.45,2735.294C1049.985,2736.454 1048.683,2737.766 1047.544,2739.231C1046.404,2740.696 1045.468,2742.181 1044.736,2743.686L1044.736,2785.801L1034.787,2785.801L1034.787,2725.254L1042.844,2722.141Z" style="fill:rgb(186,115,27);fill-rule:nonzero;"/>
                    <path d="M1089.78,2725.376L1097.714,2722.141L1099.668,2722.141L1099.668,2785.801L1089.78,2785.801L1089.78,2725.376ZM1088.803,2699.375C1088.803,2698.398 1088.956,2697.483 1089.261,2696.628C1089.566,2695.774 1089.983,2695.021 1090.512,2694.37C1091.041,2693.719 1091.662,2693.21 1092.374,2692.844C1093.086,2692.478 1093.849,2692.295 1094.663,2692.295C1095.476,2692.295 1096.239,2692.478 1096.951,2692.844C1097.664,2693.21 1098.284,2693.719 1098.813,2694.37C1099.342,2695.021 1099.759,2695.774 1100.064,2696.628C1100.369,2697.483 1100.522,2698.398 1100.522,2699.375C1100.522,2700.351 1100.369,2701.267 1100.064,2702.122C1099.759,2702.976 1099.342,2703.729 1098.813,2704.38C1098.284,2705.031 1097.664,2705.539 1096.951,2705.906C1096.239,2706.272 1095.476,2706.455 1094.663,2706.455C1093.849,2706.455 1093.086,2706.272 1092.374,2705.906C1091.662,2705.539 1091.041,2705.031 1090.512,2704.38C1089.983,2703.729 1089.566,2702.976 1089.261,2702.122C1088.956,2701.267 1088.803,2700.351 1088.803,2699.375Z" style="fill:rgb(186,115,27);fill-rule:nonzero;"/>
                    <path d="M1165.586,2739.78C1165.138,2738.275 1164.528,2736.749 1163.754,2735.203C1162.981,2733.656 1161.974,2732.263 1160.733,2731.022C1159.492,2729.781 1157.987,2728.763 1156.217,2727.97C1154.447,2727.176 1152.361,2726.78 1149.961,2726.78C1146.949,2726.78 1144.254,2727.349 1141.873,2728.489C1139.493,2729.628 1137.479,2731.174 1135.831,2733.127C1134.183,2735.08 1132.922,2737.359 1132.047,2739.963C1131.172,2742.567 1130.734,2745.334 1130.734,2748.264C1130.734,2752.252 1131.284,2756.026 1132.382,2759.586C1133.481,2763.146 1135.027,2766.269 1137.021,2768.955C1139.015,2771.641 1141.426,2773.767 1144.254,2775.333C1147.082,2776.9 1150.225,2777.683 1153.684,2777.683C1156.817,2777.683 1159.513,2777.246 1161.771,2776.371C1164.029,2775.496 1165.982,2774.306 1167.63,2772.8C1169.278,2771.295 1170.672,2769.545 1171.811,2767.551C1172.95,2765.557 1173.947,2763.462 1174.802,2761.265L1176.511,2761.997C1175.412,2765.985 1173.998,2769.535 1172.269,2772.648C1170.54,2775.76 1168.515,2778.385 1166.196,2780.521C1163.877,2782.657 1161.272,2784.295 1158.383,2785.434C1155.494,2786.574 1152.361,2787.143 1148.984,2787.143C1145.078,2787.143 1141.405,2786.34 1137.967,2784.733C1134.529,2783.125 1131.528,2780.918 1128.964,2778.11C1126.401,2775.303 1124.387,2772.027 1122.922,2768.284C1121.457,2764.54 1120.725,2760.532 1120.725,2756.26C1120.725,2751.54 1121.538,2747.104 1123.166,2742.954C1124.794,2738.804 1127.021,2735.192 1129.849,2732.12C1132.677,2729.048 1135.983,2726.617 1139.768,2724.827C1143.552,2723.036 1147.58,2722.141 1151.853,2722.141C1154.172,2722.141 1156.41,2722.426 1158.566,2722.996C1160.723,2723.565 1162.707,2724.389 1164.517,2725.467C1166.328,2726.546 1167.935,2727.848 1169.339,2729.374C1170.743,2730.9 1171.872,2732.619 1172.727,2734.531L1165.586,2739.78Z" style="fill:rgb(186,115,27);fill-rule:nonzero;"/>
                    <path d="M1221.616,2787.143C1217.547,2787.143 1213.732,2786.35 1210.172,2784.763C1206.611,2783.176 1203.499,2781.02 1200.833,2778.293C1198.168,2775.567 1196.062,2772.363 1194.516,2768.68C1192.97,2764.998 1192.197,2761.081 1192.197,2756.931C1192.197,2751.926 1192.899,2747.298 1194.303,2743.046C1195.706,2738.793 1197.7,2735.121 1200.284,2732.029C1202.868,2728.936 1205.97,2726.515 1209.592,2724.766C1213.213,2723.016 1217.242,2722.141 1221.677,2722.141C1225.583,2722.141 1229.164,2722.863 1232.419,2724.308C1235.674,2725.752 1238.482,2727.685 1240.842,2730.106C1243.202,2732.527 1245.033,2735.325 1246.335,2738.498C1247.637,2741.672 1248.288,2744.989 1248.288,2748.447L1201.718,2748.447C1201.718,2752.638 1202.288,2756.524 1203.427,2760.105C1204.567,2763.686 1206.164,2766.778 1208.219,2769.382C1210.273,2771.986 1212.715,2774.021 1215.543,2775.486C1218.371,2776.951 1221.494,2777.683 1224.912,2777.683C1227.76,2777.683 1230.496,2777.266 1233.121,2776.432C1235.745,2775.598 1238.105,2774.499 1240.201,2773.136C1242.297,2771.773 1244.067,2770.206 1245.511,2768.436C1246.956,2766.666 1247.963,2764.845 1248.532,2762.974L1250.058,2763.706C1249.122,2766.961 1247.688,2770.003 1245.755,2772.831C1243.822,2775.659 1241.574,2778.141 1239.011,2780.277C1236.447,2782.413 1233.67,2784.092 1230.679,2785.312C1227.689,2786.533 1224.668,2787.143 1221.616,2787.143ZM1233.945,2743.442L1235.166,2743.442C1235.166,2741.082 1234.718,2738.885 1233.823,2736.851C1232.928,2734.816 1231.697,2733.056 1230.13,2731.571C1228.564,2730.086 1226.722,2728.916 1224.607,2728.061C1222.491,2727.207 1220.232,2726.78 1217.832,2726.78C1215.797,2726.78 1213.854,2727.197 1212.003,2728.031C1210.151,2728.865 1208.493,2730.025 1207.028,2731.51C1205.564,2732.995 1204.363,2734.755 1203.427,2736.789C1202.491,2738.824 1201.942,2741.021 1201.779,2743.381L1233.945,2743.442Z" style="fill:rgb(186,115,27);fill-rule:nonzero;"/>
                    <path d="M1282.346,2702.06L1284.238,2702.06L1284.238,2723.301L1298.154,2723.301L1298.154,2728.611L1284.238,2728.611L1284.238,2772.617C1284.238,2773.553 1284.441,2774.428 1284.848,2775.242C1285.255,2776.055 1285.815,2776.768 1286.527,2777.378C1287.239,2777.988 1288.073,2778.466 1289.029,2778.812C1289.985,2779.158 1291.033,2779.331 1292.172,2779.331C1293.881,2779.331 1295.326,2779.046 1296.506,2778.476C1297.686,2777.907 1298.622,2777.215 1299.314,2776.401L1301.145,2777.622C1299.436,2780.552 1297.289,2782.871 1294.705,2784.58C1292.122,2786.289 1288.978,2787.143 1285.275,2787.143C1283.404,2787.143 1281.776,2786.787 1280.393,2786.075C1279.009,2785.363 1277.87,2784.366 1276.975,2783.085C1276.079,2781.803 1275.408,2780.277 1274.961,2778.507C1274.513,2776.737 1274.289,2774.774 1274.289,2772.617L1274.289,2728.611L1263.425,2728.611L1263.425,2726.047L1273.374,2723.301L1274.289,2723.301L1274.289,2705.234L1282.346,2702.06Z" style="fill:rgb(186,115,27);fill-rule:nonzero;"/>
                    <path d="M1331.967,2702.06L1333.859,2702.06L1333.859,2723.301L1347.775,2723.301L1347.775,2728.611L1333.859,2728.611L1333.859,2772.617C1333.859,2773.553 1334.063,2774.428 1334.47,2775.242C1334.877,2776.055 1335.436,2776.768 1336.148,2777.378C1336.86,2777.988 1337.694,2778.466 1338.651,2778.812C1339.607,2779.158 1340.655,2779.331 1341.794,2779.331C1343.503,2779.331 1344.947,2779.046 1346.127,2778.476C1347.308,2777.907 1348.243,2777.215 1348.935,2776.401L1350.766,2777.622C1349.057,2780.552 1346.911,2782.871 1344.327,2784.58C1341.743,2786.289 1338.6,2787.143 1334.897,2787.143C1333.025,2787.143 1331.398,2786.787 1330.014,2786.075C1328.631,2785.363 1327.491,2784.366 1326.596,2783.085C1325.701,2781.803 1325.03,2780.277 1324.582,2778.507C1324.134,2776.737 1323.911,2774.774 1323.911,2772.617L1323.911,2728.611L1313.046,2728.611L1313.046,2726.047L1322.995,2723.301L1323.911,2723.301L1323.911,2705.234L1331.967,2702.06Z" style="fill:rgb(186,115,27);fill-rule:nonzero;"/>
                    <path d="M1394.467,2787.143C1390.398,2787.143 1386.584,2786.35 1383.023,2784.763C1379.463,2783.176 1376.35,2781.02 1373.685,2778.293C1371.02,2775.567 1368.914,2772.363 1367.368,2768.68C1365.822,2764.998 1365.048,2761.081 1365.048,2756.931C1365.048,2751.926 1365.75,2747.298 1367.154,2743.046C1368.558,2738.793 1370.552,2735.121 1373.136,2732.029C1375.719,2728.936 1378.822,2726.515 1382.443,2724.766C1386.065,2723.016 1390.093,2722.141 1394.528,2722.141C1398.435,2722.141 1402.015,2722.863 1405.271,2724.308C1408.526,2725.752 1411.333,2727.685 1413.693,2730.106C1416.053,2732.527 1417.884,2735.325 1419.187,2738.498C1420.489,2741.672 1421.14,2744.989 1421.14,2748.447L1374.57,2748.447C1374.57,2752.638 1375.14,2756.524 1376.279,2760.105C1377.418,2763.686 1379.015,2766.778 1381.07,2769.382C1383.125,2771.986 1385.566,2774.021 1388.394,2775.486C1391.222,2776.951 1394.345,2777.683 1397.763,2777.683C1400.612,2777.683 1403.348,2777.266 1405.972,2776.432C1408.597,2775.598 1410.957,2774.499 1413.053,2773.136C1415.148,2771.773 1416.918,2770.206 1418.363,2768.436C1419.807,2766.666 1420.814,2764.845 1421.384,2762.974L1422.91,2763.706C1421.974,2766.961 1420.54,2770.003 1418.607,2772.831C1416.674,2775.659 1414.426,2778.141 1411.862,2780.277C1409.299,2782.413 1406.522,2784.092 1403.531,2785.312C1400.54,2786.533 1397.519,2787.143 1394.467,2787.143ZM1406.796,2743.442L1408.017,2743.442C1408.017,2741.082 1407.57,2738.885 1406.674,2736.851C1405.779,2734.816 1404.548,2733.056 1402.982,2731.571C1401.415,2730.086 1399.574,2728.916 1397.458,2728.061C1395.342,2727.207 1393.084,2726.78 1390.683,2726.78C1388.649,2726.78 1386.706,2727.197 1384.854,2728.031C1383.003,2728.865 1381.345,2730.025 1379.88,2731.51C1378.415,2732.995 1377.215,2734.755 1376.279,2736.789C1375.343,2738.824 1374.794,2741.021 1374.631,2743.381L1406.796,2743.442Z" style="fill:rgb(186,115,27);fill-rule:nonzero;"/>
                </g>
                <g transform="matrix(1,0,0,1,0,-11.877573)">
                    <circle cx="1647" cy="2734" r="20" style="fill:rgb(186,115,27);"/>
                </g>
                <g transform="matrix(1,0,0,1,649.110424,-11.877573)">
                    <circle cx="1647" cy="2734" r="20" style="fill:rgb(186,115,27);"/>
                </g>
            </g>
        </g>
    </g>
</svg>
